Comme-Extra-Light.ufo
<glyph name="exclam" format="1">
  <advance width="591"/>
  <unicode hex="0021"/>
  <outline>
    <contour>
      <point x="266" y="413" type="line"/>
      <point x="311" y="413" type="line"/>
      <point x="360" y="1395" type="line"/>
      <point x="360" y="1476" type="line"/>
      <point x="213" y="1476" type="line"/>
      <point x="213" y="1395" type="line"/>
    </contour>
    <contour>
      <point x="293" y="-16" type="curve" smooth="yes"/>
      <point x="371" y="-16"/>
      <point x="393" y="35"/>
      <point x="393" y="83" type="curve" smooth="yes"/>
      <point x="393" y="129"/>
      <point x="371" y="181"/>
      <point x="293" y="181" type="curve" smooth="yes"/>
      <point x="217" y="181"/>
      <point x="194" y="129"/>
      <point x="194" y="83" type="curve" smooth="yes"/>
      <point x="194" y="38"/>
      <point x="217" y="-16"/>
    </contour>
  </outline>
</glyph>
<glyph name="numbersign" format="1">
  <advance width="1170"/>
  <unicode hex="0023"/>
  <outline>
    <contour>
      <point x="217" y="-6" type="line"/>
      <point x="299" y="-6" type="line"/>
      <point x="389" y="437" type="line"/>
      <point x="684" y="437" type="line"/>
      <point x="597" y="-6" type="line"/>
      <point x="678" y="-6" type="line"/>
      <point x="768" y="437" type="line"/>
      <point x="969" y="437" type="line"/>
      <point x="982" y="512" type="line"/>
      <point x="783" y="512" type="line"/>
      <point x="875" y="972" type="line"/>
      <point x="1060" y="972" type="line"/>
      <point x="1073" y="1046" type="line"/>
      <point x="891" y="1046" type="line"/>
      <point x="981" y="1488" type="line"/>
      <point x="900" y="1488" type="line"/>
      <point x="809" y="1046" type="line"/>
      <point x="513" y="1046" type="line"/>
      <point x="604" y="1488" type="line"/>
      <point x="521" y="1488" type="line"/>
      <point x="429" y="1046" type="line"/>
      <point x="246" y="1046" type="line"/>
      <point x="236" y="972" type="line"/>
      <point x="414" y="972" type="line"/>
      <point x="322" y="512" type="line"/>
      <point x="150" y="512" type="line"/>
      <point x="140" y="437" type="line"/>
      <point x="307" y="437" type="line"/>
    </contour>
    <contour>
      <point x="405" y="512" type="line"/>
      <point x="498" y="972" type="line"/>
      <point x="793" y="972" type="line"/>
      <point x="700" y="512" type="line"/>
    </contour>
  </outline>
</glyph>
<glyph name="percent" format="1">
  <advance width="1721"/>
  <unicode hex="0025"/>
  <outline>
    <contour>
      <point x="396" y="790" type="curve" smooth="yes"/>
      <point x="229" y="790"/>
      <point x="173" y="917"/>
      <point x="173" y="1092" type="curve" smooth="yes"/>
      <point x="173" y="1262"/>
      <point x="229" y="1391"/>
      <point x="396" y="1391" type="curve" smooth="yes"/>
      <point x="560" y="1391"/>
      <point x="616" y="1268"/>
      <point x="616" y="1092" type="curve" smooth="yes"/>
      <point x="616" y="922"/>
      <point x="561" y="790"/>
    </contour>
    <contour>
      <point x="393" y="712" type="curve" smooth="yes"/>
      <point x="616" y="712"/>
      <point x="712" y="878"/>
      <point x="712" y="1091" type="curve" smooth="yes"/>
      <point x="712" y="1308"/>
      <point x="619" y="1469"/>
      <point x="393" y="1469" type="curve" smooth="yes"/>
      <point x="173" y="1469"/>
      <point x="78" y="1305"/>
      <point x="78" y="1091" type="curve" smooth="yes"/>
      <point x="78" y="878"/>
      <point x="169" y="712"/>
    </contour>
    <contour>
      <point x="370" y="0" type="line"/>
      <point x="481" y="0" type="line"/>
      <point x="1302" y="1456" type="line"/>
      <point x="1201" y="1456" type="line"/>
    </contour>
    <contour>
      <point x="1275" y="69" type="curve" smooth="yes"/>
      <point x="1109" y="69"/>
      <point x="1052" y="197"/>
      <point x="1052" y="371" type="curve" smooth="yes"/>
      <point x="1052" y="541"/>
      <point x="1108" y="670"/>
      <point x="1275" y="670" type="curve" smooth="yes"/>
      <point x="1440" y="670"/>
      <point x="1496" y="547"/>
      <point x="1496" y="371" type="curve" smooth="yes"/>
      <point x="1496" y="202"/>
      <point x="1441" y="69"/>
    </contour>
    <contour>
      <point x="1273" y="-8" type="curve" smooth="yes"/>
      <point x="1496" y="-8"/>
      <point x="1592" y="158"/>
      <point x="1592" y="371" type="curve" smooth="yes"/>
      <point x="1592" y="588"/>
      <point x="1499" y="749"/>
      <point x="1273" y="749" type="curve" smooth="yes"/>
      <point x="1053" y="749"/>
      <point x="955" y="585"/>
      <point x="955" y="371" type="curve" smooth="yes"/>
      <point x="955" y="158"/>
      <point x="1049" y="-8"/>
    </contour>
  </outline>
</glyph>
<glyph name="quotesingle" format="1">
  <advance width="291"/>
  <unicode hex="0027"/>
  <outline>
    <contour>
      <point x="103" y="988" type="line"/>
      <point x="176" y="988" type="line"/>
      <point x="194" y="1472" type="line"/>
      <point x="81" y="1472" type="line"/>
    </contour>
  </outline>
</glyph>
<glyph name="parenright" format="1">
  <advance width="720"/>
  <unicode hex="0029"/>
  <outline>
    <contour>
      <point x="146" y="-196" type="line"/>
      <point x="255" y="-196" type="line"/>
      <point x="425" y="67"/>
      <point x="507" y="379"/>
      <point x="507" y="693" type="curve" smooth="yes"/>
      <point x="507" y="1009"/>
      <point x="425" y="1320"/>
      <point x="255" y="1584" type="curve"/>
      <point x="146" y="1584" type="line"/>
      <point x="146" y="1564" type="line"/>
      <point x="344" y="1249"/>
      <point x="388" y="986"/>
      <point x="388" y="693" type="curve" smooth="yes"/>
      <point x="388" y="402"/>
      <point x="344" y="138"/>
      <point x="146" y="-177" type="curve"/>
    </contour>
  </outline>
</glyph>
<glyph name="asterisk" format="1">
  <advance width="1120"/>
  <unicode hex="002A"/>
  <outline>
    <contour>
      <point x="355" y="599" type="line"/>
      <point x="555" y="978" type="line"/>
      <point x="769" y="600" type="line"/>
      <point x="865" y="661"/>
      <point x="778" y="611"/>
      <point x="873" y="671" type="curve"/>
      <point x="736" y="850"/>
      <point x="656" y="961"/>
      <point x="617" y="1016" type="curve"/>
      <point x="992" y="1102" type="line"/>
      <point x="957" y="1224" type="line"/>
      <point x="591" y="1070" type="line"/>
      <point x="630" y="1487" type="line"/>
      <point x="492" y="1487" type="line"/>
      <point x="529" y="1070" type="line"/>
      <point x="165" y="1224" type="line"/>
      <point x="132" y="1102" type="line"/>
      <point x="499" y="1016" type="line"/>
      <point x="252" y="671" type="line"/>
    </contour>
  </outline>
</glyph>
<glyph name="hyphen" format="1">
  <advance width="827"/>
  <unicode hex="002D"/>
  <outline>
    <contour>
      <point x="386" y="583" type="move" name="_mid"/>
    </contour>
    <contour>
      <point x="152" y="531" type="line"/>
      <point x="654" y="531" type="line"/>
      <point x="654" y="625" type="line"/>
      <point x="152" y="625" type="line"/>
    </contour>
  </outline>
</glyph>
<glyph name="period" format="1">
  <advance width="515"/>
  <unicode hex="002E"/>
  <outline>
    <contour>
      <point x="262" y="-18" type="curve" smooth="yes"/>
      <point x="329" y="-18"/>
      <point x="348" y="26"/>
      <point x="348" y="75" type="curve" smooth="yes"/>
      <point x="348" y="123"/>
      <point x="329" y="167"/>
      <point x="262" y="167" type="curve" smooth="yes"/>
      <point x="192" y="167"/>
      <point x="175" y="123"/>
      <point x="175" y="75" type="curve" smooth="yes"/>
      <point x="175" y="27"/>
      <point x="194" y="-18"/>
    </contour>
  </outline>
</glyph>
<glyph name="one" format="1">
  <advance width="1219"/>
  <unicode hex="0031"/>
  <outline>
    <contour>
      <point x="224" y="0" type="line"/>
      <point x="1074" y="0" type="line"/>
      <point x="1074" y="92" type="line"/>
      <point x="729" y="92" type="line"/>
      <point x="729" y="1456" type="line"/>
      <point x="610" y="1456" type="line"/>
      <point x="537" y="1404"/>
      <point x="324" y="1339"/>
      <point x="257" y="1329" type="curve"/>
      <point x="257" y="1230" type="line"/>
      <point x="320" y="1237"/>
      <point x="502" y="1288"/>
      <point x="607" y="1345" type="curve"/>
      <point x="607" y="92" type="line"/>
      <point x="224" y="92" type="line"/>
    </contour>
  </outline>
</glyph>
<glyph name="two" format="1">
  <advance width="1219"/>
  <unicode hex="0032"/>
  <outline>
    <contour>
      <point x="154" y="0" type="line"/>
      <point x="1020" y="0" type="line"/>
      <point x="1025" y="98" type="line"/>
      <point x="264" y="98" type="line"/>
      <point x="763" y="598" type="line" smooth="yes"/>
      <point x="952" y="786"/>
      <point x="1021" y="905"/>
      <point x="1021" y="1077" type="curve" smooth="yes"/>
      <point x="1021" y="1330"/>
      <point x="832" y="1476"/>
      <point x="560" y="1476" type="curve" smooth="yes"/>
      <point x="396" y="1476"/>
      <point x="235" y="1417"/>
      <point x="145" y="1344" type="curve"/>
      <point x="196" y="1268" type="line"/>
      <point x="209" y="1268" type="line"/>
      <point x="309" y="1339"/>
      <point x="437" y="1378"/>
      <point x="559" y="1378" type="curve" smooth="yes"/>
      <point x="762" y="1378"/>
      <point x="904" y="1270"/>
      <point x="904" y="1076" type="curve" smooth="yes"/>
      <point x="904" y="930"/>
      <point x="841" y="829"/>
      <point x="679" y="665" type="curve" smooth="yes"/>
      <point x="119" y="99" type="line"/>
    </contour>
  </outline>
</glyph>
<glyph name="three" format="1">
  <advance width="1217"/>
  <unicode hex="0033"/>
  <outline>
    <contour>
      <point x="585" y="-20" type="curve" smooth="yes"/>
      <point x="898" y="-20"/>
      <point x="1061" y="153"/>
      <point x="1061" y="385" type="curve" smooth="yes"/>
      <point x="1062" y="621"/>
      <point x="922" y="752"/>
      <point x="699" y="780" type="curve"/>
      <point x="699" y="770" type="line"/>
      <point x="904" y="803"/>
      <point x="1023" y="909"/>
      <point x="1023" y="1113" type="curve"/>
      <point x="1025" y="1344"/>
      <point x="840" y="1476"/>
      <point x="589" y="1476" type="curve"/>
      <point x="456" y="1476"/>
      <point x="278" y="1438"/>
      <point x="164" y="1307" type="curve"/>
      <point x="226" y="1239" type="line"/>
      <point x="234" y="1239" type="line"/>
      <point x="332" y="1335"/>
      <point x="465" y="1378"/>
      <point x="593" y="1376" type="curve"/>
      <point x="774" y="1376"/>
      <point x="913" y="1293"/>
      <point x="911" y="1109" type="curve"/>
      <point x="911" y="861"/>
      <point x="684" y="832"/>
      <point x="494" y="825" type="curve" smooth="yes"/>
      <point x="429" y="825" type="line"/>
      <point x="445" y="720" type="line"/>
      <point x="493" y="720" type="line" smooth="yes"/>
      <point x="748" y="717"/>
      <point x="951" y="663"/>
      <point x="951" y="385" type="curve" smooth="yes"/>
      <point x="951" y="172"/>
      <point x="804" y="79"/>
      <point x="590" y="79" type="curve" smooth="yes"/>
      <point x="454" y="79"/>
      <point x="317" y="122"/>
      <point x="247" y="199" type="curve"/>
      <point x="237" y="199" type="line"/>
      <point x="176" y="135" type="line"/>
      <point x="244" y="44"/>
      <point x="403" y="-20"/>
    </contour>
  </outline>
</glyph>
<glyph name="four" format="1">
  <advance width="1219"/>
  <unicode hex="0034"/>
  <outline>
    <contour>
      <point x="811" y="0" type="line"/>
      <point x="929" y="0" type="line"/>
      <point x="929" y="396" type="line"/>
      <point x="1099" y="396" type="line"/>
      <point x="1109" y="491" type="line"/>
      <point x="929" y="491" type="line"/>
      <point x="929" y="1456" type="line"/>
      <point x="822" y="1456" type="line"/>
      <point x="127" y="482" type="line"/>
      <point x="144" y="396" type="line"/>
      <point x="811" y="396" type="line"/>
    </contour>
    <contour>
      <point x="254" y="491" type="line"/>
      <point x="811" y="1286" type="line"/>
      <point x="811" y="491" type="line"/>
    </contour>
  </outline>
</glyph>
<glyph name="five" format="1">
  <advance width="1219"/>
  <unicode hex="0035"/>
  <outline>
    <contour>
      <point x="596" y="-20" type="curve" smooth="yes"/>
      <point x="913" y="-20"/>
      <point x="1084" y="185"/>
      <point x="1084" y="466" type="curve" smooth="yes"/>
      <point x="1084" y="723"/>
      <point x="926" y="913"/>
      <point x="662" y="913" type="curve" smooth="yes"/>
      <point x="530" y="913"/>
      <point x="441" y="876"/>
      <point x="365" y="811" type="curve"/>
      <point x="400" y="1360" type="line"/>
      <point x="994" y="1360" type="line"/>
      <point x="1007" y="1456" type="line"/>
      <point x="289" y="1456" type="line"/>
      <point x="254" y="727" type="line"/>
      <point x="357" y="696" type="line"/>
      <point x="418" y="767"/>
      <point x="525" y="816"/>
      <point x="650" y="816" type="curve" smooth="yes"/>
      <point x="843" y="816"/>
      <point x="959" y="670"/>
      <point x="959" y="466" type="curve" smooth="yes"/>
      <point x="959" y="234"/>
      <point x="837" y="81"/>
      <point x="595" y="81" type="curve" smooth="yes"/>
      <point x="471" y="81"/>
      <point x="362" y="116"/>
      <point x="253" y="202" type="curve"/>
      <point x="240" y="202" type="line"/>
      <point x="184" y="124" type="line"/>
      <point x="296" y="33"/>
      <point x="438" y="-20"/>
    </contour>
  </outline>
</glyph>
<glyph name="six" format="1">
  <advance width="1219"/>
  <unicode hex="0036"/>
  <outline>
    <contour>
      <point x="635" y="-20" type="curve" smooth="yes"/>
      <point x="921" y="-20"/>
      <point x="1085" y="188"/>
      <point x="1085" y="429" type="curve" smooth="yes"/>
      <point x="1085" y="692"/>
      <point x="889" y="853"/>
      <point x="671" y="853" type="curve" smooth="yes"/>
      <point x="550" y="853"/>
      <point x="437" y="804"/>
      <point x="362" y="735" type="curve"/>
      <point x="517" y="966"/>
      <point x="690" y="1209"/>
      <point x="848" y="1437" type="curve"/>
      <point x="848" y="1456" type="line"/>
      <point x="724" y="1456" type="line"/>
      <point x="403" y="987" type="line" smooth="yes"/>
      <point x="257" y="774"/>
      <point x="186" y="660"/>
      <point x="186" y="433" type="curve" smooth="yes"/>
      <point x="186" y="212"/>
      <point x="331" y="-20"/>
    </contour>
    <contour>
      <point x="633" y="78" type="curve" smooth="yes"/>
      <point x="411" y="78"/>
      <point x="299" y="244"/>
      <point x="299" y="422" type="curve" smooth="yes"/>
      <point x="299" y="700"/>
      <point x="530" y="761"/>
      <point x="640" y="761" type="curve" smooth="yes"/>
      <point x="847" y="761"/>
      <point x="971" y="618"/>
      <point x="971" y="430" type="curve" smooth="yes"/>
      <point x="971" y="248"/>
      <point x="853" y="78"/>
    </contour>
  </outline>
</glyph>
<glyph name="eight" format="1">
  <advance width="1219"/>
  <unicode hex="0038"/>
  <outline>
    <contour>
      <point x="609" y="-20" type="curve" smooth="yes"/>
      <point x="883" y="-20"/>
      <point x="1069" y="118"/>
      <point x="1069" y="357" type="curve" smooth="yes"/>
      <point x="1069" y="547"/>
      <point x="945" y="699"/>
      <point x="736" y="759" type="curve"/>
      <point x="917" y="814"/>
      <point x="1035" y="932"/>
      <point x="1035" y="1123" type="curve" smooth="yes"/>
      <point x="1035" y="1343"/>
      <point x="867" y="1476"/>
      <point x="611" y="1476" type="curve" smooth="yes"/>
      <point x="353" y="1476"/>
      <point x="182" y="1343"/>
      <point x="182" y="1123" type="curve" smooth="yes"/>
      <point x="182" y="934"/>
      <point x="311" y="802"/>
      <point x="482" y="756" type="curve"/>
      <point x="266" y="690"/>
      <point x="150" y="567"/>
      <point x="150" y="357" type="curve" smooth="yes"/>
      <point x="150" y="118"/>
      <point x="337" y="-20"/>
    </contour>
    <contour>
      <point x="609" y="74" type="curve" smooth="yes"/>
      <point x="390" y="74"/>
      <point x="259" y="181"/>
      <point x="259" y="362" type="curve" smooth="yes"/>
      <point x="259" y="558"/>
      <point x="404" y="673"/>
      <point x="601" y="713" type="curve"/>
      <point x="803" y="675"/>
      <point x="956" y="562"/>
      <point x="956" y="362" type="curve" smooth="yes"/>
      <point x="956" y="180"/>
      <point x="829" y="74"/>
    </contour>
    <contour>
      <point x="620" y="797" type="curve"/>
      <point x="415" y="842"/>
      <point x="290" y="945"/>
      <point x="290" y="1124" type="curve" smooth="yes"/>
      <point x="290" y="1285"/>
      <point x="416" y="1384"/>
      <point x="609" y="1384" type="curve" smooth="yes"/>
      <point x="801" y="1384"/>
      <point x="926" y="1285"/>
      <point x="926" y="1124" type="curve" smooth="yes"/>
      <point x="926" y="959"/>
      <point x="830" y="842"/>
    </contour>
  </outline>
</glyph>
<glyph name="nine" format="1">
  <advance width="1217"/>
  <unicode hex="0039"/>
  <outline>
    <contour>
      <point x="359" y="0" type="line"/>
      <point x="488" y="0" type="line"/>
      <point x="829" y="447" type="line" smooth="yes"/>
      <point x="985" y="651"/>
      <point x="1085" y="795"/>
      <point x="1085" y="1022" type="curve" smooth="yes"/>
      <point x="1085" y="1245"/>
      <point x="939" y="1476"/>
      <point x="637" y="1476" type="curve" smooth="yes"/>
      <point x="352" y="1476"/>
      <point x="182" y="1270"/>
      <point x="182" y="1027" type="curve" smooth="yes"/>
      <point x="182" y="767"/>
      <point x="382" y="594"/>
      <point x="601" y="594" type="curve" smooth="yes"/>
      <point x="722" y="594"/>
      <point x="851" y="639"/>
      <point x="926" y="722" type="curve"/>
      <point x="914" y="736" type="line"/>
      <point x="739" y="506" type="line"/>
      <point x="359" y="13" type="line"/>
    </contour>
    <contour>
      <point x="628" y="695" type="curve" smooth="yes"/>
      <point x="416" y="693"/>
      <point x="295" y="838"/>
      <point x="295" y="1028" type="curve" smooth="yes"/>
      <point x="295" y="1209"/>
      <point x="416" y="1379"/>
      <point x="637" y="1379" type="curve" smooth="yes"/>
      <point x="861" y="1379"/>
      <point x="976" y="1211"/>
      <point x="976" y="1033" type="curve" smooth="yes"/>
      <point x="976" y="755"/>
      <point x="740" y="696"/>
    </contour>
  </outline>
</glyph>
<glyph name="colon" format="1">
  <advance width="540"/>
  <unicode hex="003A"/>
  <outline>
    <contour>
      <point x="260" y="873" type="curve" smooth="yes"/>
      <point x="331" y="873"/>
      <point x="351" y="924"/>
      <point x="351" y="969" type="curve" smooth="yes"/>
      <point x="351" y="1013"/>
      <point x="331" y="1064"/>
      <point x="260" y="1064" type="curve" smooth="yes"/>
      <point x="186" y="1064"/>
      <point x="166" y="1013"/>
      <point x="166" y="969" type="curve" smooth="yes"/>
      <point x="166" y="924"/>
      <point x="188" y="873"/>
    </contour>
    <contour>
      <point x="260" y="-16" type="curve" smooth="yes"/>
      <point x="331" y="-16"/>
      <point x="351" y="34"/>
      <point x="351" y="80" type="curve" smooth="yes"/>
      <point x="351" y="123"/>
      <point x="331" y="175"/>
      <point x="260" y="175" type="curve" smooth="yes"/>
      <point x="186" y="175"/>
      <point x="166" y="123"/>
      <point x="166" y="80" type="curve" smooth="yes"/>
      <point x="166" y="35"/>
      <point x="188" y="-16"/>
    </contour>
  </outline>
</glyph>
<glyph name="question" format="1">
  <advance width="909"/>
  <unicode hex="003F"/>
  <outline>
    <contour>
      <point x="334" y="404" type="curve"/>
      <point x="394" y="404" type="line"/>
      <point x="496" y="777"/>
      <point x="739" y="894"/>
      <point x="739" y="1193" type="curve" smooth="yes"/>
      <point x="739" y="1392"/>
      <point x="596" y="1504"/>
      <point x="409" y="1504" type="curve" smooth="yes"/>
      <point x="289" y="1504"/>
      <point x="187" y="1465"/>
      <point x="116" y="1414" type="curve"/>
      <point x="135" y="1309" type="line"/>
      <point x="175" y="1336"/>
      <point x="286" y="1398"/>
      <point x="393" y="1398" type="curve" smooth="yes"/>
      <point x="531" y="1398"/>
      <point x="615" y="1333"/>
      <point x="615" y="1183" type="curve" smooth="yes"/>
      <point x="615" y="932"/>
      <point x="341" y="666"/>
    </contour>
    <contour>
      <point x="367" y="-16" type="curve" smooth="yes"/>
      <point x="444" y="-16"/>
      <point x="468" y="34"/>
      <point x="468" y="82" type="curve" smooth="yes"/>
      <point x="468" y="127"/>
      <point x="444" y="178"/>
      <point x="367" y="178" type="curve" smooth="yes"/>
      <point x="291" y="178"/>
      <point x="269" y="127"/>
      <point x="269" y="82" type="curve" smooth="yes"/>
      <point x="269" y="36"/>
      <point x="290" y="-16"/>
    </contour>
  </outline>
</glyph>
<glyph name="A" format="1">
  <advance width="1323"/>
  <unicode hex="0041"/>
  <outline>
    <contour>
      <point x="660" y="1455" type="move" name="top"/>
    </contour>
    <contour>
      <point x="1204" y="0" type="move" name="ogonek"/>
    </contour>
    <contour>
      <point x="661" y="0" type="move" name="bot"/>
    </contour>
    <contour>
      <point x="54" y="0" type="line"/>
      <point x="177" y="0" type="line"/>
      <point x="365" y="494" type="line"/>
      <point x="966" y="494" type="line"/>
      <point x="1151" y="0" type="line"/>
      <point x="1268" y="0" type="line"/>
      <point x="714" y="1455" type="line"/>
      <point x="607" y="1455" type="line"/>
    </contour>
    <contour>
      <point x="397" y="584" type="line"/>
      <point x="660" y="1316" type="line"/>
      <point x="934" y="584" type="line"/>
    </contour>
  </outline>
</glyph>
<glyph name="C" format="1">
  <advance width="1352"/>
  <unicode hex="0043"/>
  <outline>
    <contour>
      <point x="800" y="1455" type="move" name="top"/>
    </contour>
    <contour>
      <point x="812" y="0" type="move" name="bot"/>
    </contour>
    <contour>
      <point x="151" y="728" type="curve" smooth="yes"/>
      <point x="151" y="257"/>
      <point x="410" y="-26"/>
      <point x="808" y="-20" type="curve" smooth="yes"/>
      <point x="1013" y="-16"/>
      <point x="1222" y="100"/>
      <point x="1291" y="317" type="curve"/>
      <point x="1207" y="349" type="line"/>
      <point x="1194" y="349" type="line"/>
      <point x="1137" y="188"/>
      <point x="982" y="81"/>
      <point x="811" y="78" type="curve" smooth="yes"/>
      <point x="483" y="72"/>
      <point x="273" y="312"/>
      <point x="273" y="728" type="curve" smooth="yes"/>
      <point x="273" y="1145"/>
      <point x="483" y="1385"/>
      <point x="811" y="1379" type="curve" smooth="yes"/>
      <point x="982" y="1376"/>
      <point x="1136" y="1269"/>
      <point x="1193" y="1108" type="curve"/>
      <point x="1207" y="1108" type="line"/>
      <point x="1289" y="1140" type="line"/>
      <point x="1220" y="1356"/>
      <point x="1013" y="1473"/>
      <point x="808" y="1476" type="curve" smooth="yes"/>
      <point x="410" y="1483"/>
      <point x="151" y="1200"/>
    </contour>
  </outline>
</glyph>
<glyph name="D" format="1">
  <advance width="1514"/>
  <unicode hex="0044"/>
  <outline>
    <contour>
      <point x="752" y="1455" type="move" name="top"/>
    </contour>
    <contour>
      <point x="770" y="0" type="move" name="bot"/>
    </contour>
    <contour>
      <point x="279" y="759" type="move" name="mid"/>
    </contour>
    <contour>
      <point x="216" y="4" type="line"/>
      <point x="1107" y="-75"/>
      <point x="1364" y="187"/>
      <point x="1364" y="735" type="curve" smooth="yes"/>
      <point x="1364" y="1285"/>
      <point x="1139" y="1541"/>
      <point x="216" y="1446" type="curve"/>
    </contour>
    <contour>
      <point x="287" y="1358" type="line"/>
      <point x="1049" y="1427"/>
      <point x="1242" y="1231"/>
      <point x="1242" y="730" type="curve" smooth="yes"/>
      <point x="1242" y="257"/>
      <point x="1047" y="18"/>
      <point x="287" y="92" type="curve"/>
      <point x="338" y="42" type="line"/>
      <point x="338" y="1409" type="line"/>
    </contour>
  </outline>
</glyph>
<glyph name="F" format="1">
  <advance width="1103"/>
  <unicode hex="0046"/>
  <outline>
    <contour>
      <point x="602" y="1455" type="move" name="top"/>
    </contour>
    <contour>
      <point x="216" y="0" type="line"/>
      <point x="344" y="0" type="line"/>
      <point x="344" y="687" type="line"/>
      <point x="972" y="687" type="line"/>
      <point x="972" y="777" type="line"/>
      <point x="344" y="777" type="line"/>
      <point x="344" y="1359" type="line"/>
      <point x="1039" y="1359" type="line"/>
      <point x="1048" y="1455" type="line"/>
      <point x="216" y="1455" type="line"/>
    </contour>
  </outline>
</glyph>
<glyph name="G" format="1">
  <advance width="1484"/>
  <unicode hex="0047"/>
  <outline>
    <contour>
      <point x="837" y="1455" type="move" name="top"/>
    </contour>
    <contour>
      <point x="843" y="0" type="move" name="bot"/>
    </contour>
    <contour>
      <point x="843" y="-19" type="curve" smooth="yes"/>
      <point x="1042" y="-19"/>
      <point x="1185" y="12"/>
      <point x="1328" y="64" type="curve"/>
      <point x="1328" y="733" type="line"/>
      <point x="878" y="733" type="line"/>
      <point x="867" y="634" type="line"/>
      <point x="1208" y="627" type="line"/>
      <point x="1208" y="127" type="line"/>
      <point x="1133" y="103"/>
      <point x="1000" y="79"/>
      <point x="867" y="79" type="curve" smooth="yes"/>
      <point x="468" y="79"/>
      <point x="275" y="335"/>
      <point x="275" y="726" type="curve" smooth="yes"/>
      <point x="275" y="1141"/>
      <point x="531" y="1376"/>
      <point x="863" y="1376" type="curve" smooth="yes"/>
      <point x="1017" y="1376"/>
      <point x="1147" y="1324"/>
      <point x="1250" y="1251" type="curve"/>
      <point x="1262" y="1251" type="line"/>
      <point x="1313" y="1330" type="line"/>
      <point x="1188" y="1421"/>
      <point x="1044" y="1474"/>
      <point x="861" y="1474" type="curve" smooth="yes"/>
      <point x="444" y="1474"/>
      <point x="148" y="1188"/>
      <point x="148" y="726" type="curve" smooth="yes"/>
      <point x="148" y="305"/>
      <point x="380" y="-19"/>
    </contour>
  </outline>
</glyph>
<glyph name="H" format="1">
  <advance width="1507"/>
  <unicode hex="0048"/>
  <outline>
    <contour>
      <point x="759" y="1455" type="move" name="top"/>
    </contour>
    <contour>
      <point x="214" y="0" type="line"/>
      <point x="339" y="0" type="line"/>
      <point x="339" y="703" type="line"/>
      <point x="1167" y="703" type="line"/>
      <point x="1167" y="0" type="line"/>
      <point x="1292" y="0" type="line"/>
      <point x="1292" y="1455" type="line"/>
      <point x="1167" y="1455" type="line"/>
      <point x="1167" y="793" type="line"/>
      <point x="339" y="793" type="line"/>
      <point x="339" y="1455" type="line"/>
      <point x="214" y="1455" type="line"/>
    </contour>
  </outline>
</glyph>
<glyph name="J" format="1">
  <advance width="713"/>
  <unicode hex="004A"/>
  <outline>
    <contour>
      <point x="427" y="1455" type="move" name="top"/>
    </contour>
    <contour>
      <point x="133" y="-371" type="line"/>
      <point x="200" y="-345" type="line"/>
      <point x="435" y="-254"/>
      <point x="487" y="-199"/>
      <point x="487" y="77" type="curve" smooth="yes"/>
      <point x="487" y="1455" type="line"/>
      <point x="362" y="1455" type="line"/>
      <point x="362" y="52" type="line" smooth="yes"/>
      <point x="362" y="-151"/>
      <point x="329" y="-175"/>
      <point x="176" y="-240" type="curve" smooth="yes"/>
      <point x="93" y="-274" type="line"/>
    </contour>
  </outline>
</glyph>
<glyph name="K" format="1">
  <advance width="1266"/>
  <unicode hex="004B"/>
  <outline>
    <contour>
      <point x="644" y="1455" type="move" name="top"/>
    </contour>
    <contour>
      <point x="645" y="0" type="move" name="bot"/>
    </contour>
    <contour>
      <point x="216" y="0" type="line"/>
      <point x="341" y="0" type="line"/>
      <point x="341" y="619" type="line"/>
      <point x="477" y="754" type="line"/>
      <point x="1088" y="0" type="line"/>
      <point x="1229" y="0" type="line"/>
      <point x="1229" y="11" type="line"/>
      <point x="573" y="818" type="line"/>
      <point x="1189" y="1445" type="line"/>
      <point x="1189" y="1456" type="line"/>
      <point x="1050" y="1456" type="line"/>
      <point x="341" y="736" type="line"/>
      <point x="341" y="1456" type="line"/>
      <point x="216" y="1456" type="line"/>
    </contour>
  </outline>
</glyph>
<glyph name="O" format="1">
  <advance width="1636"/>
  <unicode hex="004F"/>
  <outline>
    <contour>
      <point x="819" y="1455" type="move" name="top"/>
    </contour>
    <contour>
      <point x="909" y="0" type="move" name="ogonek"/>
    </contour>
    <contour>
      <point x="821" y="79" type="curve" smooth="yes"/>
      <point x="425" y="79"/>
      <point x="278" y="341"/>
      <point x="278" y="715" type="curve" smooth="yes"/>
      <point x="278" y="1112"/>
      <point x="440" y="1376"/>
      <point x="821" y="1376" type="curve" smooth="yes"/>
      <point x="1204" y="1376"/>
      <point x="1359" y="1108"/>
      <point x="1359" y="715" type="curve" smooth="yes"/>
      <point x="1359" y="341"/>
      <point x="1215" y="79"/>
    </contour>
    <contour>
      <point x="821" y="-19" type="curve" smooth="yes"/>
      <point x="1276" y="-19"/>
      <point x="1486" y="286"/>
      <point x="1486" y="714" type="curve" smooth="yes"/>
      <point x="1486" y="1165"/>
      <point x="1261" y="1475"/>
      <point x="821" y="1475" type="curve" smooth="yes"/>
      <point x="371" y="1475"/>
      <point x="151" y="1170"/>
      <point x="151" y="715" type="curve" smooth="yes"/>
      <point x="151" y="278"/>
      <point x="359" y="-19"/>
    </contour>
  </outline>
</glyph>
<glyph name="Q" format="1">
  <advance width="1628"/>
  <unicode hex="0051"/>
  <outline>
    <contour>
      <point x="1236" y="-410" type="curve"/>
      <point x="1310" y="-348" type="line"/>
      <point x="1203" y="-243"/>
      <point x="1070" y="-59"/>
      <point x="1022" y="46" type="curve"/>
      <point x="917" y="22" type="line"/>
      <point x="979" y="-97"/>
      <point x="1129" y="-305"/>
    </contour>
    <component base="O"/>
  </outline>
</glyph>
<glyph name="S" format="1">
  <advance width="1202"/>
  <unicode hex="0053"/>
  <outline>
    <contour>
      <point x="617" y="1462" type="move" name="top"/>
    </contour>
    <contour>
      <point x="620" y="0" type="move" name="bot"/>
    </contour>
    <contour>
      <point x="599" y="-19" type="curve" smooth="yes"/>
      <point x="850" y="-19"/>
      <point x="1083" y="76"/>
      <point x="1083" y="388" type="curve" smooth="yes"/>
      <point x="1083" y="633"/>
      <point x="924" y="699"/>
      <point x="726" y="779" type="curve"/>
      <point x="502" y="871" type="line"/>
      <point x="323" y="945"/>
      <point x="271" y="977"/>
      <point x="271" y="1124" type="curve" smooth="yes"/>
      <point x="271" y="1323"/>
      <point x="459" y="1377"/>
      <point x="632" y="1377" type="curve" smooth="yes"/>
      <point x="761" y="1377"/>
      <point x="873" y="1336"/>
      <point x="962" y="1257" type="curve"/>
      <point x="974" y="1257" type="line"/>
      <point x="1031" y="1328" type="line"/>
      <point x="943" y="1419"/>
      <point x="793" y="1475"/>
      <point x="634" y="1475" type="curve" smooth="yes"/>
      <point x="412" y="1475"/>
      <point x="149" y="1405"/>
      <point x="149" y="1107" type="curve" smooth="yes"/>
      <point x="149" y="908"/>
      <point x="264" y="849"/>
      <point x="459" y="770" type="curve" smooth="yes"/>
      <point x="682" y="678" type="line" smooth="yes"/>
      <point x="902" y="589"/>
      <point x="967" y="540"/>
      <point x="967" y="387" type="curve" smooth="yes"/>
      <point x="967" y="160"/>
      <point x="825" y="79"/>
      <point x="599" y="79" type="curve" smooth="yes"/>
      <point x="404" y="79"/>
      <point x="299" y="140"/>
      <point x="206" y="229" type="curve"/>
      <point x="197" y="229" type="line"/>
      <point x="132" y="155" type="line"/>
      <point x="186" y="95"/>
      <point x="329" y="-19"/>
    </contour>
  </outline>
</glyph>
<glyph name="T" format="1">
  <advance width="1131"/>
  <unicode hex="0054"/>
  <outline>
    <contour>
      <point x="567" y="1455" type="move" name="top"/>
    </contour>
    <contour>
      <point x="567" y="0" type="move" name="bot"/>
    </contour>
    <contour>
      <point x="565" y="753" type="move" name="mid"/>
    </contour>
    <contour>
      <point x="500" y="0" type="line"/>
      <point x="625" y="0" type="line"/>
      <point x="625" y="1360" type="line"/>
      <point x="1093" y="1360" type="line"/>
      <point x="1093" y="1455" type="line"/>
      <point x="38" y="1455" type="line"/>
      <point x="38" y="1360" type="line"/>
      <point x="500" y="1360" type="line"/>
    </contour>
  </outline>
</glyph>
<glyph name="U" format="1">
  <advance width="1454"/>
  <unicode hex="0055"/>
  <outline>
    <contour>
      <point x="730" y="1455" type="move" name="top"/>
    </contour>
    <contour>
      <point x="823" y="6" type="move" name="ogonek"/>
    </contour>
    <contour>
      <point x="725" y="0" type="move" name="bot"/>
    </contour>
    <contour>
      <point x="726" y="-19" type="curve" smooth="yes"/>
      <point x="1102" y="-19"/>
      <point x="1279" y="180"/>
      <point x="1279" y="539" type="curve" smooth="yes"/>
      <point x="1279" y="1456" type="line"/>
      <point x="1154" y="1456" type="line"/>
      <point x="1154" y="538" type="line" smooth="yes"/>
      <point x="1154" y="232"/>
      <point x="1017" y="79"/>
      <point x="726" y="79" type="curve" smooth="yes"/>
      <point x="432" y="79"/>
      <point x="298" y="232"/>
      <point x="298" y="539" type="curve" smooth="yes"/>
      <point x="298" y="1456" type="line"/>
      <point x="173" y="1456" type="line"/>
      <point x="173" y="543" type="line" smooth="yes"/>
      <point x="173" y="180"/>
      <point x="349" y="-19"/>
    </contour>
  </outline>
</glyph>
<glyph name="V" format="1">
  <advance width="1379"/>
  <unicode hex="0056"/>
  <outline>
    <contour>
      <point x="651" y="0" type="line"/>
      <point x="724" y="0" type="line"/>
      <point x="1302" y="1455" type="line"/>
      <point x="1177" y="1455" type="line"/>
      <point x="818" y="516" type="line"/>
      <point x="660" y="105" type="line"/>
      <point x="713" y="105" type="line"/>
      <point x="556" y="513" type="line"/>
      <point x="199" y="1455" type="line"/>
      <point x="77" y="1455" type="line"/>
    </contour>
  </outline>
</glyph>
<glyph name="W" format="1">
  <advance width="2044"/>
  <unicode hex="0057"/>
  <outline>
    <contour>
      <point x="1027" y="1455" type="move" name="top"/>
    </contour>
    <contour>
      <point x="1026" y="0" type="move" name="bot"/>
    </contour>
    <contour>
      <point x="1856" y="1455" type="line"/>
      <point x="1464" y="86" type="line"/>
      <point x="1502" y="86" type="line"/>
      <point x="1090" y="1414" type="line"/>
      <point x="964" y="1414" type="line"/>
      <point x="555" y="85" type="line"/>
      <point x="597" y="85" type="line"/>
      <point x="179" y="1455" type="line"/>
      <point x="72" y="1455" type="line"/>
      <point x="515" y="0" type="line"/>
      <point x="633" y="0" type="line"/>
      <point x="1055" y="1370" type="line"/>
      <point x="1003" y="1370" type="line"/>
      <point x="1420" y="0" type="line"/>
      <point x="1542" y="0" type="line"/>
      <point x="1972" y="1455" type="line"/>
    </contour>
  </outline>
</glyph>
<glyph name="X" format="1">
  <advance width="1296"/>
  <unicode hex="0058"/>
  <outline>
    <contour>
      <point x="1060" y="1455" type="line"/>
      <point x="642" y="804" type="line"/>
      <point x="588" y="743" type="line"/>
      <point x="92" y="0" type="line"/>
      <point x="216" y="0" type="line"/>
      <point x="652" y="653" type="line"/>
      <point x="702" y="714" type="line"/>
      <point x="1185" y="1455" type="line"/>
    </contour>
    <contour>
      <point x="103" y="1455" type="line"/>
      <point x="1062" y="0" type="line"/>
      <point x="1186" y="0" type="line"/>
      <point x="228" y="1455" type="line"/>
    </contour>
  </outline>
</glyph>
<glyph name="Z" format="1">
  <advance width="1195"/>
  <unicode hex="005A"/>
  <outline>
    <contour>
      <point x="664" y="1455" type="move" name="top"/>
    </contour>
    <contour>
      <point x="647" y="0" type="move" name="bot"/>
    </contour>
    <contour>
      <point x="125" y="0" type="line"/>
      <point x="1090" y="0" type="line"/>
      <point x="1101" y="95" type="line"/>
      <point x="196" y="95" type="line"/>
      <point x="215" y="51" type="line"/>
      <point x="1094" y="1365" type="line"/>
      <point x="1084" y="1455" type="line"/>
      <point x="169" y="1455" type="line"/>
      <point x="169" y="1360" type="line"/>
      <point x="1018" y="1360" type="line"/>
      <point x="992" y="1396" type="line"/>
      <point x="125" y="101" type="line"/>
    </contour>
  </outline>
</glyph>
<glyph name="bracketleft" format="1">
  <advance width="693"/>
  <unicode hex="005B"/>
  <outline>
    <contour>
      <point x="194" y="-235" type="line"/>
      <point x="630" y="-235" type="line"/>
      <point x="630" y="-148" type="line"/>
      <point x="311" y="-148" type="line"/>
      <point x="311" y="1444" type="line"/>
      <point x="630" y="1444" type="line"/>
      <point x="630" y="1532" type="line"/>
      <point x="194" y="1532" type="line"/>
    </contour>
  </outline>
</glyph>
<glyph name="backslash" format="1">
  <advance width="966"/>
  <unicode hex="005C"/>
  <outline>
    <contour>
      <point x="703" y="-54" type="line"/>
      <point x="789" y="-54" type="line"/>
      <point x="210" y="1465" type="line"/>
      <point x="126" y="1465" type="line"/>
    </contour>
  </outline>
</glyph>
<glyph name="bracketright" format="1">
  <advance width="748"/>
  <unicode hex="005D"/>
  <outline>
    <contour>
      <point x="137" y="-235" type="line"/>
      <point x="573" y="-235" type="line"/>
      <point x="573" y="1532" type="line"/>
      <point x="137" y="1532" type="line"/>
      <point x="137" y="1444" type="line"/>
      <point x="455" y="1444" type="line"/>
      <point x="455" y="-147" type="line"/>
      <point x="137" y="-147" type="line"/>
    </contour>
  </outline>
</glyph>
<glyph name="asciicircum" format="1">
  <advance width="1264"/>
  <unicode hex="005E"/>
  <outline>
    <contour>
      <point x="137" y="341" type="line"/>
      <point x="239" y="341" type="line"/>
      <point x="627" y="1317" type="line"/>
      <point x="1022" y="341" type="line"/>
      <point x="1127" y="341" type="line"/>
      <point x="660" y="1456" type="line"/>
      <point x="589" y="1456" type="line"/>
    </contour>
  </outline>
</glyph>
<glyph name="grave" format="1">
  <advance width="843"/>
  <unicode hex="0060"/>
  <outline>
    <contour>
      <point x="425" y="1057" type="move" name="_top"/>
    </contour>
    <contour>
      <point x="394" y="1210" type="line"/>
      <point x="468" y="1210" type="line"/>
      <point x="260" y="1569" type="line"/>
      <point x="105" y="1569" type="line"/>
    </contour>
  </outline>
</glyph>
<glyph name="b" format="1">
  <advance width="1233"/>
  <unicode hex="0062"/>
  <outline>
    <contour>
      <point x="675" y="1082" type="move" name="top"/>
    </contour>
    <contour>
      <point x="647" y="-20" type="curve" smooth="yes"/>
      <point x="948" y="-20"/>
      <point x="1114" y="206"/>
      <point x="1114" y="536" type="curve" smooth="yes"/>
      <point x="1114" y="882"/>
      <point x="963" y="1103"/>
      <point x="665" y="1103" type="curve" smooth="yes"/>
      <point x="513" y="1103"/>
      <point x="377" y="1026"/>
      <point x="303" y="870" type="curve"/>
      <point x="305" y="1079" type="line"/>
      <point x="305" y="1560" type="line"/>
      <point x="181" y="1540" type="line"/>
      <point x="181" y="0" type="line"/>
      <point x="274" y="0" type="line"/>
      <point x="284" y="163" type="line"/>
      <point x="347" y="66"/>
      <point x="462" y="-20"/>
    </contour>
    <contour>
      <point x="644" y="71" type="curve" smooth="yes"/>
      <point x="461" y="71"/>
      <point x="358" y="164"/>
      <point x="302" y="280" type="curve"/>
      <point x="302" y="577" type="line" smooth="yes"/>
      <point x="300" y="837"/>
      <point x="439" y="1012"/>
      <point x="653" y="1012" type="curve" smooth="yes"/>
      <point x="908" y="1012"/>
      <point x="988" y="800"/>
      <point x="988" y="538" type="curve" smooth="yes"/>
      <point x="988" y="271"/>
      <point x="887" y="71"/>
    </contour>
  </outline>
</glyph>
<glyph name="g" format="1">
  <advance width="1241"/>
  <unicode hex="0067"/>
  <outline>
    <contour>
      <point x="612" y="1082" type="move" name="top"/>
    </contour>
    <contour>
      <point x="529" y="-449" type="curve" smooth="yes"/>
      <point x="849" y="-449"/>
      <point x="1069" y="-319"/>
      <point x="1069" y="47" type="curve" smooth="yes"/>
      <point x="1069" y="1082" type="line"/>
      <point x="963" y="1082" type="line"/>
      <point x="954" y="924" type="line"/>
      <point x="892" y="1026"/>
      <point x="774" y="1103"/>
      <point x="605" y="1103" type="curve" smooth="yes"/>
      <point x="249" y="1103"/>
      <point x="118" y="825"/>
      <point x="118" y="539" type="curve" smooth="yes"/>
      <point x="118" y="265"/>
      <point x="256" y="-6"/>
      <point x="594" y="-6" type="curve" smooth="yes"/>
      <point x="766" y="-6"/>
      <point x="883" y="73"/>
      <point x="949" y="171" type="curve"/>
      <point x="949" y="39" type="line" smooth="yes"/>
      <point x="949" y="-258"/>
      <point x="796" y="-350"/>
      <point x="541" y="-350" type="curve" smooth="yes"/>
      <point x="462" y="-350"/>
      <point x="373" y="-341"/>
      <point x="278" y="-327" type="curve"/>
      <point x="266" y="-425" type="line"/>
      <point x="359" y="-441"/>
      <point x="447" y="-449"/>
    </contour>
    <contour>
      <point x="597" y="85" type="curve" smooth="yes"/>
      <point x="340" y="85"/>
      <point x="243" y="307"/>
      <point x="243" y="540" type="curve" smooth="yes"/>
      <point x="243" y="784"/>
      <point x="339" y="1012"/>
      <point x="597" y="1012" type="curve" smooth="yes"/>
      <point x="812" y="1012"/>
      <point x="902" y="879"/>
      <point x="948" y="788" type="curve"/>
      <point x="948" y="291" type="line"/>
      <point x="906" y="218"/>
      <point x="816" y="85"/>
    </contour>
  </outline>
</glyph>
<glyph name="h" format="1">
  <advance width="1194"/>
  <unicode hex="0068"/>
  <outline>
    <contour>
      <point x="606" y="1322" type="move" name="top"/>
    </contour>
    <contour>
      <point x="277" y="1263" type="move" name="mid"/>
    </contour>
    <contour>
      <point x="182" y="0" type="line"/>
      <point x="305" y="0" type="line"/>
      <point x="305" y="636" type="line" smooth="yes"/>
      <point x="305" y="806"/>
      <point x="381" y="1012"/>
      <point x="656" y="1012" type="curve" smooth="yes"/>
      <point x="835" y="1012"/>
      <point x="900" y="897"/>
      <point x="900" y="674" type="curve" smooth="yes"/>
      <point x="900" y="0" type="line"/>
      <point x="1025" y="0" type="line"/>
      <point x="1025" y="673" type="line" smooth="yes"/>
      <point x="1025" y="936"/>
      <point x="912" y="1103"/>
      <point x="676" y="1103" type="curve" smooth="yes"/>
      <point x="510" y="1103"/>
      <point x="374" y="1039"/>
      <point x="300" y="890" type="curve"/>
      <point x="306" y="1131" type="line"/>
      <point x="306" y="1560" type="line"/>
      <point x="182" y="1540" type="line"/>
    </contour>
  </outline>
</glyph>
<glyph name="k" format="1">
  <advance width="1071"/>
  <unicode hex="006B"/>
  <outline>
    <contour>
      <point x="588" y="0" type="move" name="bot"/>
    </contour>
    <contour>
      <point x="182" y="0" type="line"/>
      <point x="306" y="0" type="line"/>
      <point x="306" y="397" type="line"/>
      <point x="439" y="515" type="line"/>
      <point x="898" y="0" type="line"/>
      <point x="1036" y="0" type="line"/>
      <point x="1036" y="11" type="line"/>
      <point x="519" y="577" type="line"/>
      <point x="1021" y="1071" type="line"/>
      <point x="1021" y="1082" type="line"/>
      <point x="885" y="1082" type="line"/>
      <point x="300" y="508" type="line"/>
      <point x="306" y="715" type="line"/>
      <point x="306" y="1560" type="line"/>
      <point x="182" y="1540" type="line"/>
    </contour>
  </outline>
</glyph>
<glyph name="l" format="1">
  <advance width="601"/>
  <unicode hex="006C"/>
  <outline>
    <contour>
      <point x="347" y="1472" type="move" name="top"/>
    </contour>
    <contour>
      <point x="263" y="813" type="move" name="mid"/>
    </contour>
    <contour>
      <point x="555" y="-5" type="line"/>
      <point x="567" y="83" type="line"/>
      <point x="486" y="95" type="line" smooth="yes"/>
      <point x="336" y="118"/>
      <point x="311" y="198"/>
      <point x="311" y="609" type="curve" smooth="yes"/>
      <point x="311" y="1560" type="line"/>
      <point x="187" y="1540" type="line"/>
      <point x="187" y="609" type="line" smooth="yes"/>
      <point x="187" y="96"/>
      <point x="281" y="25"/>
      <point x="471" y="4" type="curve" smooth="yes"/>
    </contour>
  </outline>
</glyph>
<glyph name="m" format="1">
  <advance width="1796"/>
  <unicode hex="006D"/>
  <outline>
    <contour>
      <point x="939" y="1082" type="move" name="top"/>
    </contour>
    <contour>
      <point x="181" y="0" type="line"/>
      <point x="301" y="0" type="line"/>
      <point x="301" y="659" type="line"/>
      <point x="312" y="837"/>
      <point x="400" y="1012"/>
      <point x="626" y="1012" type="curve" smooth="yes"/>
      <point x="799" y="1012"/>
      <point x="845" y="890"/>
      <point x="845" y="671" type="curve" smooth="yes"/>
      <point x="845" y="0" type="line"/>
      <point x="965" y="0" type="line"/>
      <point x="965" y="634" type="line" smooth="yes"/>
      <point x="965" y="639"/>
      <point x="965" y="652"/>
      <point x="966" y="657" type="curve" smooth="yes"/>
      <point x="973" y="850"/>
      <point x="1084" y="1012"/>
      <point x="1292" y="1012" type="curve" smooth="yes"/>
      <point x="1476" y="1012"/>
      <point x="1509" y="865"/>
      <point x="1509" y="686" type="curve" smooth="yes"/>
      <point x="1509" y="0" type="line"/>
      <point x="1629" y="0" type="line"/>
      <point x="1629" y="676" type="line" smooth="yes"/>
      <point x="1629" y="966"/>
      <point x="1530" y="1104"/>
      <point x="1303" y="1104" type="curve" smooth="yes"/>
      <point x="1134" y="1104"/>
      <point x="992" y="1022"/>
      <point x="932" y="831" type="curve"/>
      <point x="945" y="833" type="line"/>
      <point x="911" y="999"/>
      <point x="811" y="1104"/>
      <point x="637" y="1104" type="curve" smooth="yes"/>
      <point x="481" y="1104"/>
      <point x="357" y="1030"/>
      <point x="285" y="865" type="curve"/>
      <point x="297" y="860" type="line"/>
      <point x="281" y="1082" type="line"/>
      <point x="181" y="1082" type="line"/>
    </contour>
  </outline>
</glyph>
<glyph name="q" format="1">
  <advance width="1227"/>
  <unicode hex="0071"/>
  <outline>
    <contour>
      <point x="923" y="-480" type="line"/>
      <point x="1047" y="-477" type="line"/>
      <point x="1047" y="1082" type="line"/>
      <point x="943" y="1082" type="line"/>
      <point x="935" y="907" type="line"/>
      <point x="883" y="1011"/>
      <point x="778" y="1103"/>
      <point x="599" y="1103" type="curve" smooth="yes"/>
      <point x="296" y="1103"/>
      <point x="119" y="876"/>
      <point x="119" y="543" type="curve" smooth="yes"/>
      <point x="119" y="211"/>
      <point x="299" y="-20"/>
      <point x="592" y="-20" type="curve" smooth="yes"/>
      <point x="751" y="-20"/>
      <point x="863" y="57"/>
      <point x="928" y="145" type="curve"/>
      <point x="923" y="-97" type="line"/>
    </contour>
    <contour>
      <point x="597" y="71" type="curve" smooth="yes"/>
      <point x="371" y="71"/>
      <point x="247" y="249"/>
      <point x="247" y="543" type="curve" smooth="yes"/>
      <point x="247" y="833"/>
      <point x="375" y="1012"/>
      <point x="598" y="1012" type="curve" smooth="yes"/>
      <point x="743" y="1012"/>
      <point x="859" y="943"/>
      <point x="925" y="797" type="curve"/>
      <point x="925" y="264" type="line"/>
      <point x="870" y="144"/>
      <point x="750" y="71"/>
    </contour>
  </outline>
</glyph>
<glyph name="r" format="1">
  <advance width="776"/>
  <unicode hex="0072"/>
  <outline>
    <contour>
      <point x="453" y="1082" type="move" name="top"/>
    </contour>
    <contour>
      <point x="265" y="0" type="move" name="bot"/>
    </contour>
    <contour>
      <point x="183" y="0" type="line"/>
      <point x="307" y="0" type="line"/>
      <point x="307" y="633" type="line" smooth="yes"/>
      <point x="307" y="827"/>
      <point x="440" y="1001"/>
      <point x="640" y="1001" type="curve" smooth="yes"/>
      <point x="651" y="1001"/>
      <point x="683" y="998"/>
      <point x="695" y="995" type="curve"/>
      <point x="706" y="1091" type="line"/>
      <point x="684" y="1094"/>
      <point x="656" y="1096"/>
      <point x="623" y="1096" type="curve" smooth="yes"/>
      <point x="496" y="1096"/>
      <point x="364" y="1032"/>
      <point x="289" y="833" type="curve"/>
      <point x="277" y="1082" type="line"/>
      <point x="183" y="1082" type="line"/>
    </contour>
  </outline>
</glyph>
<glyph name="s" format="1">
  <advance width="948"/>
  <unicode hex="0073"/>
  <outline>
    <contour>
      <point x="498" y="1082" type="move" name="top"/>
    </contour>
    <contour>
      <point x="480" y="0" type="move" name="bot"/>
    </contour>
    <contour>
      <point x="487" y="-20" type="curve" smooth="yes"/>
      <point x="690" y="-20"/>
      <point x="842" y="75"/>
      <point x="843" y="282" type="curve" smooth="yes"/>
      <point x="843" y="432"/>
      <point x="783" y="519"/>
      <point x="562" y="589" type="curve"/>
      <point x="418" y="636" type="line" smooth="yes"/>
      <point x="286" y="678"/>
      <point x="240" y="734"/>
      <point x="240" y="828" type="curve" smooth="yes"/>
      <point x="240" y="953"/>
      <point x="351" y="1011"/>
      <point x="499" y="1011" type="curve" smooth="yes"/>
      <point x="595" y="1011"/>
      <point x="681" y="983"/>
      <point x="737" y="940" type="curve"/>
      <point x="747" y="940" type="line"/>
      <point x="797" y="1007" type="line"/>
      <point x="737" y="1061"/>
      <point x="625" y="1103"/>
      <point x="496" y="1103" type="curve" smooth="yes"/>
      <point x="274" y="1103"/>
      <point x="123" y="1005"/>
      <point x="123" y="829" type="curve" smooth="yes"/>
      <point x="123" y="691"/>
      <point x="185" y="606"/>
      <point x="388" y="543" type="curve" smooth="yes"/>
      <point x="531" y="497" type="line" smooth="yes"/>
      <point x="691" y="447"/>
      <point x="733" y="391"/>
      <point x="733" y="280" type="curve" smooth="yes"/>
      <point x="733" y="140"/>
      <point x="657" y="72"/>
      <point x="487" y="72" type="curve" smooth="yes"/>
      <point x="388" y="72"/>
      <point x="279" y="97"/>
      <point x="195" y="161" type="curve"/>
      <point x="181" y="161" type="line"/>
      <point x="130" y="91" type="line"/>
      <point x="230" y="15"/>
      <point x="362" y="-20"/>
    </contour>
  </outline>
</glyph>
<glyph name="u" format="1">
  <advance width="1183"/>
  <unicode hex="0075"/>
  <outline>
    <contour>
      <point x="597" y="1082" type="move" name="top"/>
    </contour>
    <contour>
      <point x="947" y="0" type="move" name="ogonek"/>
    </contour>
    <contour>
      <point x="577" y="0" type="move" name="bot"/>
    </contour>
    <contour>
      <point x="546" y="-20" type="curve" smooth="yes"/>
      <point x="714" y="-20"/>
      <point x="813" y="32"/>
      <point x="886" y="144" type="curve"/>
      <point x="897" y="0" type="line"/>
      <point x="1004" y="0" type="line"/>
      <point x="1004" y="1082" type="line"/>
      <point x="880" y="1082" type="line"/>
      <point x="880" y="243" type="line"/>
      <point x="829" y="155"/>
      <point x="737" y="70"/>
      <point x="555" y="70" type="curve" smooth="yes"/>
      <point x="367" y="70"/>
      <point x="293" y="191"/>
      <point x="293" y="383" type="curve" smooth="yes"/>
      <point x="293" y="1082" type="line"/>
      <point x="168" y="1082" type="line"/>
      <point x="168" y="416" type="line" smooth="yes"/>
      <point x="168" y="119"/>
      <point x="301" y="-20"/>
    </contour>
  </outline>
</glyph>
<glyph name="v" format="1">
  <advance width="1052"/>
  <unicode hex="0076"/>
  <outline>
    <contour>
      <point x="463" y="0" type="line"/>
      <point x="592" y="0" type="line"/>
      <point x="991" y="1082" type="line"/>
      <point x="871" y="1082" type="line"/>
      <point x="657" y="476" type="line"/>
      <point x="507" y="67" type="line"/>
      <point x="548" y="67" type="line"/>
      <point x="398" y="474" type="line"/>
      <point x="184" y="1082" type="line"/>
      <point x="64" y="1082" type="line"/>
    </contour>
  </outline>
</glyph>
<glyph name="w" format="1">
  <advance width="1508"/>
  <unicode hex="0077"/>
  <outline>
    <contour>
      <point x="756" y="1082" type="move" name="top"/>
    </contour>
    <contour>
      <point x="335" y="0" type="line"/>
      <point x="439" y="0" type="line"/>
      <point x="757" y="966" type="line"/>
      <point x="1071" y="0" type="line"/>
      <point x="1173" y="0" type="line"/>
      <point x="1457" y="1082" type="line"/>
      <point x="1348" y="1082" type="line"/>
      <point x="1120" y="138" type="line"/>
      <point x="819" y="1063" type="line"/>
      <point x="690" y="1063" type="line"/>
      <point x="391" y="139" type="line"/>
      <point x="164" y="1082" type="line"/>
      <point x="51" y="1082" type="line"/>
    </contour>
  </outline>
</glyph>
<glyph name="x" format="1">
  <advance width="1027"/>
  <unicode hex="0078"/>
  <outline>
    <contour>
      <point x="53" y="0" type="line"/>
      <point x="176" y="0" type="line"/>
      <point x="519" y="467" type="line"/>
      <point x="852" y="0" type="line"/>
      <point x="978" y="0" type="line"/>
      <point x="591" y="547" type="line"/>
      <point x="978" y="1082" type="line"/>
      <point x="855" y="1082" type="line"/>
      <point x="527" y="629" type="line"/>
      <point x="211" y="1082" type="line"/>
      <point x="81" y="1082" type="line"/>
      <point x="456" y="548" type="line"/>
    </contour>
  </outline>
</glyph>
<glyph name="y" format="1">
  <advance width="1091"/>
  <unicode hex="0079"/>
  <outline>
    <contour>
      <point x="571" y="1082" type="move" name="top"/>
    </contour>
    <contour>
      <point x="1035" y="1082" type="line"/>
      <point x="919" y="1082" type="line"/>
      <point x="551" y="124" type="line"/>
      <point x="533" y="82" type="line"/>
      <point x="357" y="-372" type="line"/>
      <point x="456" y="-405" type="line"/>
    </contour>
    <contour>
      <point x="602" y="116" type="line"/>
      <point x="189" y="1082" type="line"/>
      <point x="64" y="1082" type="line"/>
      <point x="549" y="-28" type="line"/>
    </contour>
  </outline>
</glyph>
<glyph name="cent" format="1">
  <advance width="1038"/>
  <unicode hex="00A2"/>
  <outline>
    <contour>
      <point x="543" y="-295" type="line"/>
      <point x="635" y="-295" type="line"/>
      <point x="642" y="22" type="line"/>
      <point x="543" y="22" type="line"/>
    </contour>
    <contour>
      <point x="543" y="1062" type="line"/>
      <point x="638" y="1062" type="line"/>
      <point x="639" y="1377" type="line"/>
      <point x="547" y="1377" type="line"/>
    </contour>
    <component base="c"/>
  </outline>
</glyph>
<glyph name="sterling" format="1">
  <advance width="1198"/>
  <unicode hex="00A3"/>
  <outline>
    <contour>
      <point x="992" y="1271" type="line"/>
      <point x="1038" y="1348" type="line"/>
      <point x="965" y="1415"/>
      <point x="861" y="1475"/>
      <point x="707" y="1475" type="curve" smooth="yes"/>
      <point x="344" y="1475"/>
      <point x="302" y="1180"/>
      <point x="302" y="899" type="curve" smooth="yes"/>
      <point x="302" y="774" type="line"/>
      <point x="120" y="774" type="line"/>
      <point x="120" y="690" type="line"/>
      <point x="302" y="690" type="line"/>
      <point x="302" y="89" type="line"/>
      <point x="117" y="75" type="line"/>
      <point x="129" y="0" type="line"/>
      <point x="1034" y="0" type="line"/>
      <point x="1042" y="91" type="line"/>
      <point x="415" y="91" type="line"/>
      <point x="415" y="690" type="line"/>
      <point x="829" y="690" type="line"/>
      <point x="829" y="774" type="line"/>
      <point x="415" y="774" type="line"/>
      <point x="415" y="942" type="line" smooth="yes"/>
      <point x="415" y="1210"/>
      <point x="490" y="1377"/>
      <point x="704" y="1379" type="curve" smooth="yes"/>
      <point x="817" y="1380"/>
      <point x="900" y="1338"/>
      <point x="982" y="1271" type="curve"/>
    </contour>
  </outline>
</glyph>
<glyph name="currency" format="1">
  <advance width="1347"/>
  <unicode hex="00A4"/>
  <outline>
    <contour>
      <point x="933" y="1019" type="line"/>
      <point x="860" y="1082"/>
      <point x="765" y="1119"/>
      <point x="662" y="1119" type="curve" smooth="yes"/>
      <point x="559" y="1119"/>
      <point x="466" y="1086"/>
      <point x="390" y="1020" type="curve"/>
      <point x="208" y="1193" type="line"/>
      <point x="160" y="1146" type="line"/>
      <point x="345" y="967" type="line"/>
      <point x="287" y="894"/>
      <point x="258" y="805"/>
      <point x="258" y="711" type="curve" smooth="yes"/>
      <point x="258" y="616"/>
      <point x="287" y="530"/>
      <point x="345" y="455" type="curve"/>
      <point x="161" y="279" type="line"/>
      <point x="208" y="228" type="line"/>
      <point x="392" y="403" type="line"/>
      <point x="466" y="338"/>
      <point x="558" y="305"/>
      <point x="662" y="305" type="curve" smooth="yes"/>
      <point x="767" y="305"/>
      <point x="859" y="338"/>
      <point x="933" y="401" type="curve"/>
      <point x="1117" y="227" type="line"/>
      <point x="1160" y="277" type="line"/>
      <point x="979" y="455" type="line"/>
      <point x="1037" y="526"/>
      <point x="1065" y="613"/>
      <point x="1065" y="711" type="curve" smooth="yes"/>
      <point x="1065" y="801"/>
      <point x="1038" y="888"/>
      <point x="978" y="967" type="curve"/>
      <point x="1161" y="1143" type="line"/>
      <point x="1117" y="1193" type="line"/>
    </contour>
    <contour>
      <point x="992" y="711" type="curve" smooth="yes"/>
      <point x="992" y="528"/>
      <point x="873" y="369"/>
      <point x="662" y="369" type="curve" smooth="yes"/>
      <point x="454" y="369"/>
      <point x="333" y="527"/>
      <point x="333" y="711" type="curve" smooth="yes"/>
      <point x="333" y="894"/>
      <point x="454" y="1054"/>
      <point x="662" y="1054" type="curve" smooth="yes"/>
      <point x="872" y="1054"/>
      <point x="992" y="893"/>
    </contour>
  </outline>
</glyph>
<glyph name="yen" format="1">
  <advance width="1278"/>
  <unicode hex="00A5"/>
  <outline>
    <contour>
      <point x="258" y="300" type="line"/>
      <point x="1020" y="300" type="line"/>
      <point x="1020" y="379" type="line"/>
      <point x="258" y="379" type="line"/>
    </contour>
    <contour>
      <point x="258" y="580" type="line"/>
      <point x="1020" y="580" type="line"/>
      <point x="1020" y="659" type="line"/>
      <point x="258" y="659" type="line"/>
    </contour>
    <component base="Y"/>
  </outline>
</glyph>
<glyph name="brokenbar" format="1">
  <advance width="297"/>
  <unicode hex="00A6"/>
  <outline>
    <contour>
      <point x="101" y="546" type="line"/>
      <point x="101" y="-159" type="line"/>
      <point x="187" y="-159" type="line"/>
      <point x="187" y="546" type="line"/>
    </contour>
    <contour>
      <point x="101" y="1504" type="line"/>
      <point x="101" y="802" type="line"/>
      <point x="187" y="802" type="line"/>
      <point x="187" y="1504" type="line"/>
    </contour>
  </outline>
</glyph>
<glyph name="dieresis" format="1">
  <advance width="839"/>
  <unicode hex="00A8"/>
  <outline>
    <contour>
      <point x="419" y="1082" type="move" name="_top"/>
    </contour>
    <contour>
      <point x="214" y="1331" type="curve" smooth="yes"/>
      <point x="273" y="1331"/>
      <point x="291" y="1371"/>
      <point x="291" y="1409" type="curve" smooth="yes"/>
      <point x="291" y="1446"/>
      <point x="273" y="1487"/>
      <point x="214" y="1487" type="curve" smooth="yes"/>
      <point x="152" y="1487"/>
      <point x="136" y="1446"/>
      <point x="136" y="1409" type="curve" smooth="yes"/>
      <point x="136" y="1371"/>
      <point x="154" y="1331"/>
    </contour>
    <contour>
      <point x="601" y="1331" type="curve" smooth="yes"/>
      <point x="659" y="1331"/>
      <point x="677" y="1370"/>
      <point x="677" y="1409" type="curve" smooth="yes"/>
      <point x="677" y="1446"/>
      <point x="659" y="1487"/>
      <point x="601" y="1487" type="curve" smooth="yes"/>
      <point x="538" y="1487"/>
      <point x="522" y="1446"/>
      <point x="522" y="1409" type="curve" smooth="yes"/>
      <point x="522" y="1371"/>
      <point x="540" y="1331"/>
    </contour>
  </outline>
</glyph>
<glyph name="copyright" format="1">
  <advance width="1865"/>
  <unicode hex="00A9"/>
  <outline>
    <contour>
      <point x="926" y="229" type="curve" smooth="yes"/>
      <point x="1021" y="229"/>
      <point x="1119" y="256"/>
      <point x="1212" y="315" type="curve"/>
      <point x="1185" y="389" type="line"/>
      <point x="1089" y="331"/>
      <point x="1011" y="313"/>
      <point x="925" y="313" type="curve" smooth="yes"/>
      <point x="710" y="313"/>
      <point x="529" y="479"/>
      <point x="529" y="755" type="curve" smooth="yes"/>
      <point x="529" y="1002"/>
      <point x="710" y="1179"/>
      <point x="916" y="1179" type="curve" smooth="yes"/>
      <point x="991" y="1179"/>
      <point x="1092" y="1152"/>
      <point x="1170" y="1089" type="curve"/>
      <point x="1208" y="1168" type="line"/>
      <point x="1113" y="1233"/>
      <point x="1012" y="1264"/>
      <point x="914" y="1264" type="curve" smooth="yes"/>
      <point x="651" y="1264"/>
      <point x="419" y="1046"/>
      <point x="419" y="748" type="curve" smooth="yes"/>
      <point x="419" y="443"/>
      <point x="657" y="229"/>
    </contour>
    <contour>
      <point x="892" y="33" type="curve" smooth="yes"/>
      <point x="555" y="33"/>
      <point x="195" y="257"/>
      <point x="195" y="749" type="curve" smooth="yes"/>
      <point x="195" y="1240"/>
      <point x="555" y="1465"/>
      <point x="892" y="1465" type="curve" smooth="yes"/>
      <point x="1229" y="1465"/>
      <point x="1593" y="1240"/>
      <point x="1593" y="749" type="curve" smooth="yes"/>
      <point x="1593" y="258"/>
      <point x="1229" y="33"/>
    </contour>
    <contour>
      <point x="892" y="-37" type="curve" smooth="yes"/>
      <point x="1275" y="-37"/>
      <point x="1686" y="210"/>
      <point x="1686" y="749" type="curve" smooth="yes"/>
      <point x="1686" y="1288"/>
      <point x="1275" y="1537"/>
      <point x="892" y="1537" type="curve" smooth="yes"/>
      <point x="510" y="1537"/>
      <point x="106" y="1288"/>
      <point x="106" y="749" type="curve" smooth="yes"/>
      <point x="106" y="210"/>
      <point x="510" y="-37"/>
    </contour>
  </outline>
</glyph>
<glyph name="guillemotleft" format="1">
  <advance width="1006"/>
  <unicode hex="00AB"/>
  <outline>
    <contour>
      <point x="397" y="158" type="line"/>
      <point x="489" y="166" type="line"/>
      <point x="226" y="544" type="line"/>
      <point x="497" y="918" type="line"/>
      <point x="401" y="927" type="line"/>
      <point x="121" y="541" type="line"/>
    </contour>
    <contour>
      <point x="726" y="158" type="line"/>
      <point x="818" y="166" type="line"/>
      <point x="554" y="544" type="line"/>
      <point x="825" y="918" type="line"/>
      <point x="729" y="927" type="line"/>
      <point x="451" y="541" type="line"/>
    </contour>
  </outline>
</glyph>
<glyph name="logicalnot" format="1">
  <advance width="1229"/>
  <unicode hex="00AC"/>
  <outline>
    <contour>
      <point x="974" y="260" type="line"/>
      <point x="1062" y="260" type="line"/>
      <point x="1062" y="789" type="line"/>
      <point x="109" y="789" type="line"/>
      <point x="109" y="695" type="line"/>
      <point x="974" y="695" type="line"/>
    </contour>
  </outline>
</glyph>
<glyph name="registered" format="1">
  <advance width="1929"/>
  <unicode hex="00AE"/>
  <outline>
    <contour>
      <point x="659" y="311" type="line"/>
      <point x="755" y="311" type="line"/>
      <point x="755" y="774" type="line"/>
      <point x="1014" y="774" type="line"/>
      <point x="1018" y="766"/>
      <point x="1233" y="311"/>
      <point x="1233" y="311" type="curve"/>
      <point x="1339" y="311" type="line"/>
      <point x="1339" y="311"/>
      <point x="1109" y="790"/>
      <point x="1110" y="787" type="curve"/>
      <point x="1242" y="792"/>
      <point x="1309" y="887"/>
      <point x="1309" y="1026" type="curve" smooth="yes"/>
      <point x="1309" y="1186"/>
      <point x="1248" y="1265"/>
      <point x="991" y="1265" type="curve" smooth="yes"/>
      <point x="659" y="1265" type="line"/>
    </contour>
    <contour>
      <point x="757" y="857" type="line"/>
      <point x="757" y="1182" type="line"/>
      <point x="985" y="1182" type="line" smooth="yes"/>
      <point x="1159" y="1182"/>
      <point x="1219" y="1157"/>
      <point x="1219" y="1021" type="curve" smooth="yes"/>
      <point x="1219" y="913"/>
      <point x="1186" y="857"/>
      <point x="1035" y="857" type="curve" smooth="yes"/>
    </contour>
    <contour>
      <point x="960" y="32" type="curve" smooth="yes"/>
      <point x="626" y="32"/>
      <point x="269" y="256"/>
      <point x="269" y="752" type="curve" smooth="yes"/>
      <point x="269" y="1248"/>
      <point x="626" y="1473"/>
      <point x="960" y="1473" type="curve" smooth="yes"/>
      <point x="1295" y="1473"/>
      <point x="1657" y="1247"/>
      <point x="1657" y="752" type="curve" smooth="yes"/>
      <point x="1657" y="257"/>
      <point x="1295" y="32"/>
    </contour>
    <contour>
      <point x="960" y="-39" type="curve" smooth="yes"/>
      <point x="1341" y="-39"/>
      <point x="1749" y="210"/>
      <point x="1749" y="752" type="curve" smooth="yes"/>
      <point x="1749" y="1295"/>
      <point x="1341" y="1544"/>
      <point x="960" y="1544" type="curve" smooth="yes"/>
      <point x="580" y="1544"/>
      <point x="175" y="1295"/>
      <point x="175" y="752" type="curve" smooth="yes"/>
      <point x="175" y="210"/>
      <point x="579" y="-39"/>
    </contour>
  </outline>
</glyph>
<glyph name="degree" format="1">
  <advance width="863"/>
  <unicode hex="00B0"/>
  <outline>
    <contour>
      <point x="428" y="987" type="curve" smooth="yes"/>
      <point x="307" y="987"/>
      <point x="216" y="1076"/>
      <point x="216" y="1200" type="curve" smooth="yes"/>
      <point x="216" y="1325"/>
      <point x="310" y="1414"/>
      <point x="427" y="1414" type="curve" smooth="yes"/>
      <point x="548" y="1414"/>
      <point x="642" y="1325"/>
      <point x="642" y="1200" type="curve" smooth="yes"/>
      <point x="642" y="1078"/>
      <point x="548" y="987"/>
    </contour>
    <contour>
      <point x="426" y="912" type="curve" smooth="yes"/>
      <point x="577" y="912"/>
      <point x="726" y="1029"/>
      <point x="726" y="1201" type="curve" smooth="yes"/>
      <point x="726" y="1377"/>
      <point x="574" y="1489"/>
      <point x="426" y="1489" type="curve" smooth="yes"/>
      <point x="284" y="1489"/>
      <point x="130" y="1377"/>
      <point x="130" y="1201" type="curve" smooth="yes"/>
      <point x="130" y="1020"/>
      <point x="286" y="912"/>
    </contour>
  </outline>
</glyph>
<glyph name="plusminus" format="1">
  <advance width="1158"/>
  <unicode hex="00B1"/>
  <outline>
    <contour>
      <point x="526" y="190" type="line"/>
      <point x="619" y="190" type="line"/>
      <point x="619" y="597" type="line"/>
      <point x="993" y="597" type="line"/>
      <point x="993" y="680" type="line"/>
      <point x="619" y="680" type="line"/>
      <point x="619" y="1071" type="line"/>
      <point x="526" y="1071" type="line"/>
      <point x="526" y="680" type="line"/>
      <point x="148" y="680" type="line"/>
      <point x="148" y="597" type="line"/>
      <point x="526" y="597" type="line"/>
    </contour>
    <contour>
      <point x="112" y="0" type="line"/>
      <point x="1051" y="0" type="line"/>
      <point x="1051" y="85" type="line"/>
      <point x="112" y="85" type="line"/>
    </contour>
  </outline>
</glyph>
<glyph name="uni00B2" format="1">
  <advance width="750"/>
  <unicode hex="00B2"/>
  <outline>
    <contour>
      <point x="149" y="679" type="line"/>
      <point x="638" y="679" type="line"/>
      <point x="641" y="754" type="line"/>
      <point x="274" y="754" type="line"/>
      <point x="370" y="852"/>
      <point x="419" y="898"/>
      <point x="483" y="964" type="curve" smooth="yes"/>
      <point x="590" y="1073"/>
      <point x="643" y="1149"/>
      <point x="643" y="1266" type="curve" smooth="yes"/>
      <point x="643" y="1429"/>
      <point x="523" y="1514"/>
      <point x="380" y="1514" type="curve" smooth="yes"/>
      <point x="247" y="1514"/>
      <point x="151" y="1465"/>
      <point x="82" y="1379" type="curve"/>
      <point x="134" y="1320" type="line"/>
      <point x="195" y="1392"/>
      <point x="268" y="1435"/>
      <point x="381" y="1435" type="curve" smooth="yes"/>
      <point x="487" y="1435"/>
      <point x="551" y="1365"/>
      <point x="551" y="1264" type="curve" smooth="yes"/>
      <point x="551" y="1193"/>
      <point x="513" y="1126"/>
      <point x="417" y="1020" type="curve" smooth="yes"/>
      <point x="332" y="928"/>
      <point x="260" y="864"/>
      <point x="149" y="755" type="curve"/>
    </contour>
  </outline>
</glyph>
<glyph name="uni00B5" format="1">
  <advance width="1177"/>
  <unicode hex="00B5"/>
  <outline>
    <contour>
      <point x="1004" y="1082" type="line"/>
      <point x="880" y="1082" type="line"/>
      <point x="880" y="243" type="line"/>
      <point x="829" y="155"/>
      <point x="737" y="70"/>
      <point x="555" y="70" type="curve" smooth="yes"/>
      <point x="367" y="70"/>
      <point x="293" y="191"/>
      <point x="293" y="383" type="curve" smooth="yes"/>
      <point x="293" y="1082" type="line"/>
      <point x="168" y="1082" type="line"/>
      <point x="168" y="-335" type="line"/>
      <point x="293" y="-335" type="line"/>
      <point x="293" y="65" type="line"/>
      <point x="354" y="8"/>
      <point x="439" y="-20"/>
      <point x="546" y="-20" type="curve" smooth="yes"/>
      <point x="714" y="-20"/>
      <point x="813" y="32"/>
      <point x="886" y="144" type="curve"/>
      <point x="897" y="0" type="line"/>
      <point x="1004" y="0" type="line"/>
    </contour>
  </outline>
</glyph>
<glyph name="periodcentered" format="1">
  <advance width="491"/>
  <unicode hex="00B7"/>
  <outline>
    <contour>
      <point x="249" y="534" type="curve" smooth="yes"/>
      <point x="314" y="534"/>
      <point x="339" y="579"/>
      <point x="339" y="625" type="curve" smooth="yes"/>
      <point x="339" y="670"/>
      <point x="314" y="714"/>
      <point x="249" y="714" type="curve" smooth="yes"/>
      <point x="182" y="714"/>
      <point x="158" y="670"/>
      <point x="158" y="625" type="curve" smooth="yes"/>
      <point x="158" y="579"/>
      <point x="184" y="534"/>
    </contour>
  </outline>
</glyph>
<glyph name="uni00B9" format="1">
  <advance width="900"/>
  <unicode hex="00B9"/>
  <outline>
    <contour>
      <point x="277" y="674" type="line"/>
      <point x="754" y="674" type="line"/>
      <point x="754" y="750" type="line"/>
      <point x="572" y="750" type="line"/>
      <point x="572" y="1503" type="line"/>
      <point x="486" y="1503" type="line"/>
      <point x="443" y="1462"/>
      <point x="334" y="1419"/>
      <point x="277" y="1403" type="curve"/>
      <point x="277" y="1325" type="line"/>
      <point x="331" y="1337"/>
      <point x="432" y="1373"/>
      <point x="470" y="1399" type="curve"/>
      <point x="470" y="750" type="line"/>
      <point x="277" y="750" type="line"/>
    </contour>
  </outline>
</glyph>
<glyph name="ordmasculine" format="1">
  <advance width="889"/>
  <unicode hex="00BA"/>
  <outline>
    <contour>
      <point x="443" y="858" type="curve" smooth="yes"/>
      <point x="298" y="858"/>
      <point x="224" y="985"/>
      <point x="224" y="1148" type="curve" smooth="yes"/>
      <point x="224" y="1314"/>
      <point x="299" y="1441"/>
      <point x="443" y="1441" type="curve" smooth="yes"/>
      <point x="593" y="1441"/>
      <point x="671" y="1312"/>
      <point x="671" y="1145" type="curve" smooth="yes"/>
      <point x="671" y="983"/>
      <point x="598" y="858"/>
    </contour>
    <contour>
      <point x="443" y="774" type="curve" smooth="yes"/>
      <point x="644" y="774"/>
      <point x="779" y="936"/>
      <point x="779" y="1148" type="curve" smooth="yes"/>
      <point x="779" y="1369"/>
      <point x="662" y="1527"/>
      <point x="443" y="1527" type="curve" smooth="yes"/>
      <point x="231" y="1527"/>
      <point x="109" y="1366"/>
      <point x="109" y="1148" type="curve" smooth="yes"/>
      <point x="109" y="933"/>
      <point x="231" y="774"/>
    </contour>
  </outline>
</glyph>
<glyph name="guillemotright" format="1">
  <advance width="977"/>
  <unicode hex="00BB"/>
  <outline>
    <contour>
      <point x="238" y="158" type="line"/>
      <point x="516" y="542" type="line"/>
      <point x="240" y="927" type="line"/>
      <point x="147" y="919" type="line"/>
      <point x="413" y="540" type="line"/>
      <point x="143" y="166" type="line"/>
    </contour>
    <contour>
      <point x="567" y="158" type="line"/>
      <point x="845" y="542" type="line"/>
      <point x="569" y="927" type="line"/>
      <point x="476" y="919" type="line"/>
      <point x="741" y="540" type="line"/>
      <point x="473" y="166" type="line"/>
    </contour>
  </outline>
</glyph>
<glyph name="onehalf" format="1">
  <advance width="1715"/>
  <unicode hex="00BD"/>
  <outline>
    <contour>
      <point x="1082" y="0" type="line"/>
      <point x="1592" y="0" type="line"/>
      <point x="1591" y="85" type="line"/>
      <point x="1205" y="85" type="line"/>
      <point x="1264" y="147"/>
      <point x="1380" y="250"/>
      <point x="1420" y="291" type="curve" smooth="yes"/>
      <point x="1541" y="407"/>
      <point x="1604" y="485"/>
      <point x="1604" y="602" type="curve" smooth="yes"/>
      <point x="1604" y="757"/>
      <point x="1488" y="850"/>
      <point x="1335" y="850" type="curve" smooth="yes"/>
      <point x="1207" y="850"/>
      <point x="1100" y="785"/>
      <point x="1044" y="678" type="curve"/>
      <point x="1110" y="627" type="line"/>
      <point x="1169" y="720"/>
      <point x="1242" y="761"/>
      <point x="1334" y="761" type="curve" smooth="yes"/>
      <point x="1434" y="761"/>
      <point x="1502" y="699"/>
      <point x="1502" y="600" type="curve" smooth="yes"/>
      <point x="1502" y="520"/>
      <point x="1464" y="459"/>
      <point x="1354" y="348" type="curve" smooth="yes"/>
      <point x="1312" y="303"/>
      <point x="1161" y="161"/>
      <point x="1081" y="78" type="curve"/>
    </contour>
    <contour>
      <point x="122" y="654" type="line"/>
      <point x="526" y="654" type="line"/>
      <point x="526" y="729" type="line"/>
      <point x="382" y="729" type="line"/>
      <point x="382" y="1501" type="line"/>
      <point x="300" y="1501" type="line"/>
      <point x="256" y="1457"/>
      <point x="164" y="1420"/>
      <point x="114" y="1401" type="curve"/>
      <point x="114" y="1322" type="line"/>
      <point x="161" y="1339"/>
      <point x="245" y="1374"/>
      <point x="282" y="1399" type="curve"/>
      <point x="282" y="729" type="line"/>
      <point x="122" y="729" type="line"/>
    </contour>
    <contour>
      <point x="376" y="0" type="line"/>
      <point x="475" y="0" type="line"/>
      <point x="1362" y="1510" type="line"/>
      <point x="1263" y="1510" type="line"/>
    </contour>
  </outline>
</glyph>
<glyph name="AE" format="1">
  <advance width="1832"/>
  <unicode hex="00C6"/>
  <outline>
    <contour>
      <point x="7" y="0" type="line"/>
      <point x="140" y="0" type="line"/>
      <point x="451" y="497" type="line"/>
      <point x="970" y="497" type="line"/>
      <point x="970" y="0" type="line"/>
      <point x="1776" y="0" type="line"/>
      <point x="1785" y="94" type="line"/>
      <point x="1085" y="94" type="line"/>
      <point x="1085" y="704" type="line"/>
      <point x="1701" y="704" type="line"/>
      <point x="1701" y="797" type="line"/>
      <point x="1085" y="797" type="line"/>
      <point x="1085" y="1361" type="line"/>
      <point x="1777" y="1361" type="line"/>
      <point x="1781" y="1455" type="line"/>
      <point x="922" y="1455" type="line"/>
    </contour>
    <contour>
      <point x="505" y="586" type="line"/>
      <point x="970" y="1342" type="line"/>
      <point x="970" y="586" type="line"/>
    </contour>
  </outline>
</glyph>
<glyph name="Oslash" format="1">
  <advance width="1656"/>
  <unicode hex="00D8"/>
  <outline>
    <contour>
      <point x="822" y="1456" type="move" name="top"/>
    </contour>
    <contour>
      <point x="494" y="-230" type="line"/>
      <point x="588" y="11" type="line"/>
      <point x="657" y="-9"/>
      <point x="734" y="-19"/>
      <point x="821" y="-19" type="curve" smooth="yes"/>
      <point x="1275" y="-19"/>
      <point x="1482" y="285"/>
      <point x="1482" y="713" type="curve" smooth="yes"/>
      <point x="1482" y="1039"/>
      <point x="1366" y="1291"/>
      <point x="1137" y="1406" type="curve"/>
      <point x="1232" y="1649" type="line"/>
      <point x="1158" y="1676" type="line"/>
      <point x="1065" y="1437" type="line"/>
      <point x="993" y="1462"/>
      <point x="912" y="1475"/>
      <point x="822" y="1475" type="curve" smooth="yes"/>
      <point x="372" y="1475"/>
      <point x="152" y="1171"/>
      <point x="152" y="717" type="curve" smooth="yes"/>
      <point x="152" y="389"/>
      <point x="267" y="140"/>
      <point x="517" y="35" type="curve"/>
      <point x="424" y="-205" type="line"/>
    </contour>
    <contour>
      <point x="554" y="130" type="line"/>
      <point x="354" y="225"/>
      <point x="275" y="441"/>
      <point x="275" y="716" type="curve" smooth="yes"/>
      <point x="275" y="1111"/>
      <point x="437" y="1378"/>
      <point x="821" y="1378" type="curve" smooth="yes"/>
      <point x="899" y="1378"/>
      <point x="969" y="1366"/>
      <point x="1029" y="1345" type="curve"/>
    </contour>
    <contour>
      <point x="818" y="78" type="curve" smooth="yes"/>
      <point x="745" y="78"/>
      <point x="681" y="86"/>
      <point x="624" y="104" type="curve"/>
      <point x="1099" y="1311" type="line"/>
      <point x="1282" y="1208"/>
      <point x="1360" y="993"/>
      <point x="1360" y="716" type="curve" smooth="yes"/>
      <point x="1360" y="342"/>
      <point x="1215" y="78"/>
    </contour>
  </outline>
</glyph>
<glyph name="germandbls" format="1">
  <advance width="1220"/>
  <unicode hex="00DF"/>
  <outline>
    <contour>
      <point x="815" y="-19" type="curve" smooth="yes"/>
      <point x="1010" y="-19"/>
      <point x="1122" y="102"/>
      <point x="1122" y="281" type="curve" smooth="yes"/>
      <point x="1122" y="569"/>
      <point x="725" y="646"/>
      <point x="725" y="770" type="curve" smooth="yes"/>
      <point x="725" y="870"/>
      <point x="951" y="1012"/>
      <point x="951" y="1209" type="curve" smooth="yes"/>
      <point x="951" y="1378"/>
      <point x="832" y="1514"/>
      <point x="607" y="1514" type="curve" smooth="yes"/>
      <point x="307" y="1514"/>
      <point x="189" y="1336"/>
      <point x="189" y="1044" type="curve" smooth="yes"/>
      <point x="189" y="0" type="line"/>
      <point x="315" y="0" type="line"/>
      <point x="315" y="1051" type="line" smooth="yes"/>
      <point x="315" y="1326"/>
      <point x="410" y="1418"/>
      <point x="608" y="1418" type="curve" smooth="yes"/>
      <point x="758" y="1418"/>
      <point x="824" y="1332"/>
      <point x="824" y="1213" type="curve" smooth="yes"/>
      <point x="824" y="991"/>
      <point x="616" y="926"/>
      <point x="616" y="761" type="curve" smooth="yes"/>
      <point x="616" y="562"/>
      <point x="1002" y="497"/>
      <point x="1002" y="272" type="curve" smooth="yes"/>
      <point x="1002" y="188"/>
      <point x="957" y="82"/>
      <point x="809" y="82" type="curve" smooth="yes"/>
      <point x="685" y="82"/>
      <point x="576" y="125"/>
      <point x="514" y="158" type="curve"/>
      <point x="476" y="61" type="line"/>
      <point x="538" y="25"/>
      <point x="676" y="-19"/>
    </contour>
  </outline>
</glyph>
<glyph name="ae" format="1">
  <advance width="1758"/>
  <unicode hex="00E6"/>
  <outline>
    <contour>
      <point x="921" y="1082" type="move" name="top"/>
    </contour>
    <contour>
      <point x="1281" y="-19" type="curve" smooth="yes"/>
      <point x="1431" y="-19"/>
      <point x="1542" y="20"/>
      <point x="1641" y="76" type="curve"/>
      <point x="1603" y="157" type="line"/>
      <point x="1484" y="97"/>
      <point x="1409" y="75"/>
      <point x="1299" y="75" type="curve" smooth="yes"/>
      <point x="1089" y="75"/>
      <point x="932" y="201"/>
      <point x="919" y="520" type="curve"/>
      <point x="1017" y="518"/>
      <point x="1093" y="517"/>
      <point x="1162" y="519" type="curve" smooth="yes"/>
      <point x="1494" y="528"/>
      <point x="1639" y="586"/>
      <point x="1639" y="803" type="curve" smooth="yes"/>
      <point x="1639" y="960"/>
      <point x="1509" y="1101"/>
      <point x="1269" y="1101" type="curve" smooth="yes"/>
      <point x="1105" y="1101"/>
      <point x="935" y="1014"/>
      <point x="888" y="831" type="curve"/>
      <point x="869" y="1030"/>
      <point x="723" y="1102"/>
      <point x="528" y="1102" type="curve" smooth="yes"/>
      <point x="394" y="1102"/>
      <point x="255" y="1062"/>
      <point x="155" y="1003" type="curve"/>
      <point x="201" y="918" type="line"/>
      <point x="312" y="983"/>
      <point x="446" y="1009"/>
      <point x="551" y="1009" type="curve" smooth="yes"/>
      <point x="732" y="1009"/>
      <point x="803" y="917"/>
      <point x="803" y="742" type="curve" smooth="yes"/>
      <point x="803" y="608" type="line"/>
      <point x="773" y="611"/>
      <point x="595" y="613"/>
      <point x="577" y="613" type="curve" smooth="yes"/>
      <point x="235" y="613"/>
      <point x="108" y="494"/>
      <point x="108" y="293" type="curve" smooth="yes"/>
      <point x="108" y="71"/>
      <point x="254" y="-12"/>
      <point x="430" y="-15" type="curve"/>
      <point x="601" y="-15"/>
      <point x="801" y="62"/>
      <point x="889" y="195" type="curve"/>
      <point x="966" y="57"/>
      <point x="1106" y="-19"/>
    </contour>
    <contour>
      <point x="457" y="83" type="curve" smooth="yes"/>
      <point x="338" y="83"/>
      <point x="231" y="144"/>
      <point x="231" y="306" type="curve" smooth="yes"/>
      <point x="231" y="450"/>
      <point x="302" y="531"/>
      <point x="604" y="531" type="curve" smooth="yes"/>
      <point x="618" y="531"/>
      <point x="778" y="529"/>
      <point x="802" y="526" type="curve" smooth="yes"/>
      <point x="802" y="469"/>
      <point x="810" y="351"/>
      <point x="833" y="294" type="curve" smooth="yes"/>
      <point x="773" y="165"/>
      <point x="611" y="83"/>
    </contour>
    <contour>
      <point x="923" y="602" type="curve"/>
      <point x="942" y="832"/>
      <point x="1058" y="1006"/>
      <point x="1271" y="1006" type="curve" smooth="yes"/>
      <point x="1451" y="1006"/>
      <point x="1531" y="897"/>
      <point x="1531" y="788" type="curve" smooth="yes"/>
      <point x="1531" y="645"/>
      <point x="1387" y="590"/>
    </contour>
  </outline>
</glyph>
<glyph name="eth" format="1">
  <advance width="1308"/>
  <unicode hex="00F0"/>
  <outline>
    <contour>
      <point x="283" y="1612" type="line"/>
      <point x="508" y="1407" type="line"/>
      <point x="260" y="1312" type="line"/>
      <point x="300" y="1234" type="line"/>
      <point x="564" y="1335" type="line"/>
      <point x="810" y="1098"/>
      <point x="917" y="935"/>
      <point x="970" y="810" type="curve"/>
      <point x="917" y="864"/>
      <point x="828" y="976"/>
      <point x="634" y="976" type="curve" smooth="yes"/>
      <point x="355" y="976"/>
      <point x="150" y="778"/>
      <point x="150" y="486" type="curve" smooth="yes"/>
      <point x="150" y="229"/>
      <point x="304" y="-27"/>
      <point x="637" y="-27" type="curve" smooth="yes"/>
      <point x="979" y="-27"/>
      <point x="1126" y="213"/>
      <point x="1126" y="494" type="curve" smooth="yes"/>
      <point x="1126" y="628"/>
      <point x="1095" y="773"/>
      <point x="1048" y="871" type="curve" smooth="yes"/>
      <point x="986" y="999"/>
      <point x="888" y="1136"/>
      <point x="659" y="1375" type="curve"/>
      <point x="937" y="1478" type="line"/>
      <point x="896" y="1554" type="line"/>
      <point x="594" y="1439" type="line"/>
      <point x="418" y="1612" type="line"/>
    </contour>
    <contour>
      <point x="1015" y="500" type="curve" smooth="yes"/>
      <point x="1015" y="237"/>
      <point x="892" y="63"/>
      <point x="643" y="63" type="curve" smooth="yes"/>
      <point x="387" y="63"/>
      <point x="272" y="279"/>
      <point x="272" y="484" type="curve" smooth="yes"/>
      <point x="272" y="707"/>
      <point x="407" y="882"/>
      <point x="636" y="882" type="curve" smooth="yes"/>
      <point x="882" y="882"/>
      <point x="1015" y="687"/>
    </contour>
  </outline>
</glyph>
<glyph name="divide" format="1">
  <advance width="1077"/>
  <unicode hex="00F7"/>
  <outline>
    <contour>
      <point x="452" y="38" type="line"/>
      <point x="608" y="38" type="line"/>
      <point x="608" y="208" type="line"/>
      <point x="452" y="208" type="line"/>
    </contour>
    <contour>
      <point x="72" y="512" type="line"/>
      <point x="987" y="512" type="line"/>
      <point x="987" y="622" type="line"/>
      <point x="72" y="622" type="line"/>
    </contour>
    <contour>
      <point x="452" y="894" type="line"/>
      <point x="609" y="894" type="line"/>
      <point x="609" y="1064" type="line"/>
      <point x="452" y="1064" type="line"/>
    </contour>
  </outline>
</glyph>
<glyph name="oslash" format="1">
  <advance width="1199"/>
  <unicode hex="00F8"/>
  <outline>
    <contour>
      <point x="216" y="-122" type="line"/>
      <point x="278" y="-156" type="line"/>
      <point x="1006" y="1195" type="line"/>
      <point x="940" y="1227" type="line"/>
    </contour>
    <component base="o"/>
  </outline>
</glyph>
<glyph name="thorn" format="1">
  <advance width="1232"/>
  <unicode hex="00FE"/>
  <outline>
    <contour>
      <point x="179" y="-496" type="line"/>
      <point x="299" y="-496" type="line"/>
      <point x="299" y="138" type="line"/>
      <point x="365" y="52"/>
      <point x="475" y="-20"/>
      <point x="645" y="-20" type="curve" smooth="yes"/>
      <point x="946" y="-20"/>
      <point x="1112" y="206"/>
      <point x="1112" y="536" type="curve" smooth="yes"/>
      <point x="1112" y="882"/>
      <point x="961" y="1103"/>
      <point x="664" y="1103" type="curve" smooth="yes"/>
      <point x="511" y="1103"/>
      <point x="375" y="1026"/>
      <point x="301" y="870" type="curve"/>
      <point x="303" y="1108" type="line"/>
      <point x="303" y="1560" type="line"/>
      <point x="179" y="1540" type="line"/>
    </contour>
    <contour>
      <point x="642" y="71" type="curve" smooth="yes"/>
      <point x="459" y="71"/>
      <point x="356" y="164"/>
      <point x="300" y="280" type="curve"/>
      <point x="300" y="577" type="line" smooth="yes"/>
      <point x="298" y="837"/>
      <point x="437" y="1012"/>
      <point x="651" y="1012" type="curve" smooth="yes"/>
      <point x="906" y="1012"/>
      <point x="986" y="800"/>
      <point x="986" y="538" type="curve" smooth="yes"/>
      <point x="986" y="271"/>
      <point x="886" y="71"/>
    </contour>
  </outline>
</glyph>
<glyph name="Eng" format="1">
  <advance width="1533"/>
  <unicode hex="014A"/>
  <outline>
    <contour>
      <point x="1320" y="1455" type="line"/>
      <point x="1214" y="1455" type="line"/>
      <point x="1214" y="535" type="line"/>
      <point x="1222" y="158" type="line"/>
      <point x="330" y="1455" type="line"/>
      <point x="216" y="1455" type="line"/>
      <point x="216" y="0" type="line"/>
      <point x="324" y="0" type="line"/>
      <point x="324" y="911" type="line"/>
      <point x="312" y="1296" type="line"/>
      <point x="1214" y="-11" type="line"/>
      <point x="1215" y="-255"/>
      <point x="1149" y="-336"/>
      <point x="771" y="-336" type="curve"/>
      <point x="780" y="-427" type="line"/>
      <point x="1221" y="-426"/>
      <point x="1320" y="-293"/>
      <point x="1320" y="-35" type="curve" smooth="yes"/>
    </contour>
  </outline>
</glyph>
<glyph name="eng" format="1">
  <advance width="1178"/>
  <unicode hex="014B"/>
  <outline>
    <contour>
      <point x="298" y="889" type="curve"/>
      <point x="282" y="1082" type="line"/>
      <point x="180" y="1082" type="line"/>
      <point x="180" y="0" type="line"/>
      <point x="305" y="0" type="line"/>
      <point x="305" y="651" type="line" smooth="yes"/>
      <point x="305" y="829"/>
      <point x="380" y="1012"/>
      <point x="647" y="1012" type="curve" smooth="yes"/>
      <point x="832" y="1012"/>
      <point x="887" y="887"/>
      <point x="886" y="696" type="curve" smooth="yes"/>
      <point x="886" y="-2" type="line" smooth="yes"/>
      <point x="886" y="-241"/>
      <point x="846" y="-316"/>
      <point x="500" y="-316" type="curve"/>
      <point x="509" y="-407" type="line"/>
      <point x="934" y="-406"/>
      <point x="1010" y="-282"/>
      <point x="1010" y="-18" type="curve" smooth="yes"/>
      <point x="1010" y="658" type="line" smooth="yes"/>
      <point x="1010" y="959"/>
      <point x="904" y="1103"/>
      <point x="662" y="1103" type="curve" smooth="yes"/>
      <point x="473" y="1103"/>
      <point x="358" y="1023"/>
    </contour>
  </outline>
</glyph>
<glyph name="OE" format="1">
  <advance width="2615"/>
  <unicode hex="0152"/>
  <outline>
    <contour>
      <point x="815" y="-19" type="curve" smooth="yes"/>
      <point x="1076" y="-19"/>
      <point x="1256" y="89"/>
      <point x="1355" y="264" type="curve"/>
      <point x="1355" y="0" type="line"/>
      <point x="2238" y="0" type="line"/>
      <point x="2246" y="94" type="line"/>
      <point x="1478" y="94" type="line"/>
      <point x="1478" y="700" type="line"/>
      <point x="2162" y="700" type="line"/>
      <point x="2162" y="795" type="line"/>
      <point x="1478" y="795" type="line"/>
      <point x="1478" y="1361" type="line"/>
      <point x="2237" y="1361" type="line"/>
      <point x="2242" y="1455" type="line"/>
      <point x="1355" y="1455" type="line"/>
      <point x="1355" y="1175" type="line"/>
      <point x="1254" y="1362"/>
      <point x="1070" y="1475"/>
      <point x="816" y="1475" type="curve" smooth="yes"/>
      <point x="365" y="1475"/>
      <point x="145" y="1171"/>
      <point x="145" y="717" type="curve" smooth="yes"/>
      <point x="145" y="278"/>
      <point x="353" y="-19"/>
    </contour>
    <contour>
      <point x="812" y="77" type="curve" smooth="yes"/>
      <point x="417" y="77"/>
      <point x="269" y="342"/>
      <point x="269" y="716" type="curve" smooth="yes"/>
      <point x="269" y="1112"/>
      <point x="432" y="1379"/>
      <point x="815" y="1379" type="curve" smooth="yes"/>
      <point x="1198" y="1379"/>
      <point x="1354" y="1108"/>
      <point x="1354" y="716" type="curve" smooth="yes"/>
      <point x="1354" y="342"/>
      <point x="1209" y="77"/>
    </contour>
  </outline>
</glyph>
<glyph name="florin" format="1">
  <advance width="949"/>
  <unicode hex="0192"/>
  <outline>
    <contour>
      <point x="506" y="1194" type="curve" smooth="yes"/>
      <point x="453" y="920" type="line"/>
      <point x="291" y="920" type="line"/>
      <point x="278" y="853" type="line"/>
      <point x="442" y="853" type="line"/>
      <point x="285" y="141" type="line" smooth="yes"/>
      <point x="247" y="-31"/>
      <point x="257" y="-196"/>
      <point x="-10" y="-143" type="curve"/>
      <point x="-24" y="-205" type="line"/>
      <point x="204" y="-262"/>
      <point x="335" y="-165"/>
      <point x="401" y="140" type="curve" smooth="yes"/>
      <point x="557" y="853" type="line"/>
      <point x="797" y="853" type="line"/>
      <point x="810" y="920" type="line"/>
      <point x="572" y="920" type="line"/>
      <point x="623" y="1193" type="line" smooth="yes"/>
      <point x="650" y="1332"/>
      <point x="692" y="1414"/>
      <point x="790" y="1414" type="curve" smooth="yes"/>
      <point x="865" y="1414"/>
      <point x="906" y="1365"/>
      <point x="906" y="1254" type="curve"/>
      <point x="997" y="1254" type="line"/>
      <point x="997" y="1432"/>
      <point x="901" y="1487"/>
      <point x="788" y="1487" type="curve" smooth="yes"/>
      <point x="625" y="1487"/>
      <point x="542" y="1382"/>
    </contour>
  </outline>
</glyph>
<glyph name="circumflex" format="1">
  <advance width="859"/>
  <unicode hex="02C6"/>
  <outline>
    <contour>
      <point x="427" y="1082" type="move" name="_top"/>
    </contour>
    <contour>
      <point x="165" y="1252" type="line"/>
      <point x="258" y="1252" type="line"/>
      <point x="418" y="1494" type="line"/>
      <point x="579" y="1252" type="line"/>
      <point x="670" y="1252" type="line"/>
      <point x="483" y="1570" type="line"/>
      <point x="353" y="1570" type="line"/>
    </contour>
  </outline>
</glyph>
<glyph name="caron" format="1">
  <advance width="864"/>
  <unicode hex="02C7"/>
  <outline>
    <contour>
      <point x="430" y="1082" type="move" name="_top"/>
    </contour>
    <contour>
      <point x="354" y="1248" type="line"/>
      <point x="483" y="1248" type="line"/>
      <point x="670" y="1566" type="line"/>
      <point x="579" y="1566" type="line"/>
      <point x="419" y="1325" type="line"/>
      <point x="258" y="1566" type="line"/>
      <point x="166" y="1566" type="line"/>
    </contour>
  </outline>
</glyph>
<glyph name="breve" format="1">
  <advance width="838"/>
  <unicode hex="02D8"/>
  <outline>
    <contour>
      <point x="415" y="1077" type="move" name="_top"/>
    </contour>
    <contour>
      <point x="409" y="1282" type="curve" smooth="yes"/>
      <point x="524" y="1282"/>
      <point x="627" y="1346"/>
      <point x="627" y="1508" type="curve"/>
      <point x="555" y="1508" type="line"/>
      <point x="555" y="1397"/>
      <point x="480" y="1354"/>
      <point x="409" y="1354" type="curve" smooth="yes"/>
      <point x="341" y="1354"/>
      <point x="272" y="1397"/>
      <point x="272" y="1508" type="curve"/>
      <point x="197" y="1508" type="line"/>
      <point x="197" y="1345"/>
      <point x="297" y="1282"/>
    </contour>
  </outline>
</glyph>
<glyph name="ogonek" format="1">
  <advance width="673"/>
  <unicode hex="02DB"/>
  <outline>
    <contour>
      <point x="419" y="0" type="move" name="_ogonek"/>
    </contour>
    <contour>
      <point x="359" y="-399" type="curve" smooth="yes"/>
      <point x="403" y="-399"/>
      <point x="451" y="-388"/>
      <point x="483" y="-373" type="curve"/>
      <point x="483" y="-303" type="line"/>
      <point x="459" y="-314"/>
      <point x="422" y="-324"/>
      <point x="388" y="-324" type="curve" smooth="yes"/>
      <point x="337" y="-324"/>
      <point x="294" y="-298"/>
      <point x="294" y="-233" type="curve" smooth="yes"/>
      <point x="294" y="-149"/>
      <point x="377" y="-53"/>
      <point x="455" y="1" type="curve"/>
      <point x="388" y="1" type="line"/>
      <point x="272" y="-60"/>
      <point x="193" y="-169"/>
      <point x="193" y="-264" type="curve" smooth="yes"/>
      <point x="193" y="-357"/>
      <point x="265" y="-399"/>
    </contour>
  </outline>
</glyph>
<glyph name="tilde" format="1">
  <advance width="1001"/>
  <unicode hex="02DC"/>
  <outline>
    <contour>
      <point x="499" y="1077" type="move" name="_top"/>
    </contour>
    <contour>
      <point x="187" y="1317" type="curve"/>
      <point x="252" y="1317" type="line"/>
      <point x="257" y="1387"/>
      <point x="281" y="1417"/>
      <point x="317" y="1417" type="curve" smooth="yes"/>
      <point x="394" y="1417"/>
      <point x="523" y="1317"/>
      <point x="625" y="1317" type="curve" smooth="yes"/>
      <point x="682" y="1317"/>
      <point x="749" y="1346"/>
      <point x="749" y="1496" type="curve"/>
      <point x="680" y="1496" type="line"/>
      <point x="673" y="1429"/>
      <point x="652" y="1406"/>
      <point x="619" y="1406" type="curve" smooth="yes"/>
      <point x="552" y="1406"/>
      <point x="440" y="1497"/>
      <point x="328" y="1497" type="curve" smooth="yes"/>
      <point x="258" y="1497"/>
      <point x="187" y="1465"/>
    </contour>
  </outline>
</glyph>
<glyph name="commaaccent" format="1">
  <advance width="604"/>
  <unicode hex="0326"/>
  <outline>
    <contour>
      <point x="319" y="0" type="move" name="_bot"/>
    </contour>
    <contour>
      <point x="233" y="-505" type="curve"/>
      <point x="299" y="-505" type="line"/>
      <point x="299" y="-505"/>
      <point x="372" y="-254"/>
      <point x="372" y="-167" type="curve" smooth="yes"/>
      <point x="372" y="-154" type="line"/>
      <point x="258" y="-154" type="line"/>
      <point x="258" y="-260"/>
      <point x="235" y="-490"/>
    </contour>
  </outline>
</glyph>
<glyph name="Delta" format="1">
  <advance width="1350"/>
  <unicode hex="0394"/>
  <outline>
    <contour>
      <point x="95" y="0" type="line"/>
      <point x="1232" y="0" type="line"/>
      <point x="716" y="1493" type="line"/>
      <point x="598" y="1493" type="line"/>
    </contour>
    <contour>
      <point x="239" y="110" type="line"/>
      <point x="654" y="1374" type="line"/>
      <point x="1087" y="110" type="line"/>
    </contour>
  </outline>
</glyph>
<glyph name="quoteleft" format="1">
  <advance width="522"/>
  <unicode hex="2018"/>
  <outline>
    <contour>
      <point x="367" y="1473" type="line"/>
      <point x="285" y="1473" type="line"/>
      <point x="184" y="1011" type="line"/>
      <point x="315" y="1011" type="line"/>
    </contour>
  </outline>
</glyph>
<glyph name="quoteright" format="1">
  <advance width="522"/>
  <unicode hex="2019"/>
  <outline>
    <contour>
      <point x="184" y="1011" type="line"/>
      <point x="265" y="1011" type="line"/>
      <point x="367" y="1473" type="line"/>
      <point x="236" y="1473" type="line"/>
    </contour>
  </outline>
</glyph>
<glyph name="quotedblright" format="1">
  <advance width="867"/>
  <unicode hex="201D"/>
  <outline>
    <contour>
      <point x="183" y="1011" type="line"/>
      <point x="266" y="1011" type="line"/>
      <point x="367" y="1472" type="line"/>
      <point x="235" y="1472" type="line"/>
    </contour>
    <contour>
      <point x="496" y="1011" type="line"/>
      <point x="578" y="1011" type="line"/>
      <point x="680" y="1472" type="line"/>
      <point x="547" y="1472" type="line"/>
    </contour>
  </outline>
</glyph>
<glyph name="daggerdbl" format="1">
  <advance width="974"/>
  <unicode hex="2021"/>
  <outline>
    <contour>
      <point x="538" y="377" type="line"/>
      <point x="867" y="377" type="line"/>
      <point x="867" y="450" type="line"/>
      <point x="539" y="450" type="line"/>
      <point x="539" y="970" type="line"/>
      <point x="868" y="970" type="line"/>
      <point x="868" y="1043" type="line"/>
      <point x="537" y="1043" type="line"/>
      <point x="537" y="1461" type="line"/>
      <point x="440" y="1461" type="line"/>
      <point x="440" y="1043" type="line"/>
      <point x="110" y="1043" type="line"/>
      <point x="110" y="970" type="line"/>
      <point x="440" y="970" type="line"/>
      <point x="440" y="450" type="line"/>
      <point x="110" y="450" type="line"/>
      <point x="110" y="377" type="line"/>
      <point x="440" y="377" type="line"/>
      <point x="440" y="-41" type="line"/>
      <point x="538" y="-41" type="line"/>
    </contour>
  </outline>
</glyph>
<glyph name="guilsinglright" format="1">
  <advance width="712"/>
  <unicode hex="203A"/>
  <outline>
    <contour>
      <point x="160" y="142" type="line"/>
      <point x="268" y="142" type="line"/>
      <point x="579" y="576" type="line"/>
      <point x="269" y="1005" type="line"/>
      <point x="160" y="1005" type="line"/>
      <point x="461" y="576" type="line"/>
    </contour>
  </outline>
</glyph>
<glyph name="uni2113" format="1">
  <advance width="1135"/>
  <unicode hex="2113"/>
  <outline>
    <contour>
      <point x="511" y="-20" type="curve" smooth="yes"/>
      <point x="727" y="-30"/>
      <point x="873" y="98"/>
      <point x="873" y="98" type="curve"/>
      <point x="852" y="174" type="line"/>
      <point x="742" y="107"/>
      <point x="652" y="71"/>
      <point x="562" y="77" type="curve" smooth="yes"/>
      <point x="430" y="86"/>
      <point x="417" y="205"/>
      <point x="470" y="417" type="curve" smooth="yes"/>
      <point x="528" y="655" type="line"/>
      <point x="480" y="576" type="line"/>
      <point x="816" y="865" type="line" smooth="yes"/>
      <point x="1053" y="1069"/>
      <point x="1145" y="1201"/>
      <point x="1145" y="1411" type="curve" smooth="yes"/>
      <point x="1145" y="1601"/>
      <point x="1023" y="1676"/>
      <point x="896" y="1677" type="curve" smooth="yes"/>
      <point x="780" y="1677"/>
      <point x="660" y="1628"/>
      <point x="597" y="1396" type="curve" smooth="yes"/>
      <point x="377" y="585" type="line"/>
      <point x="421" y="648" type="line"/>
      <point x="87" y="391" type="line"/>
      <point x="125" y="334" type="line"/>
      <point x="394" y="540" type="line"/>
      <point x="370" y="546" type="line"/>
      <point x="244" y="155"/>
      <point x="337" y="-12"/>
    </contour>
    <contour>
      <point x="532" y="675" type="line"/>
      <point x="544" y="780" type="line"/>
      <point x="548" y="795"/>
      <point x="787" y="1005"/>
      <point x="797" y="1005" type="curve" smooth="yes"/>
      <point x="1007" y="1178"/>
      <point x="1060" y="1306"/>
      <point x="1059" y="1410" type="curve" smooth="yes"/>
      <point x="1059" y="1488"/>
      <point x="1010" y="1530"/>
      <point x="889" y="1511" type="curve" smooth="yes"/>
      <point x="809" y="1511"/>
      <point x="715" y="1442"/>
      <point x="685" y="1323" type="curve" smooth="yes"/>
    </contour>
  </outline>
</glyph>
<glyph name="trademark" format="1">
  <advance width="2020"/>
  <unicode hex="2122"/>
  <outline>
    <contour>
      <point x="924" y="540" type="line"/>
      <point x="994" y="540" type="line"/>
      <point x="1002" y="1373" type="line"/>
      <point x="1346" y="646" type="line"/>
      <point x="1412" y="646" type="line"/>
      <point x="1739" y="1368" type="line"/>
      <point x="1747" y="540" type="line"/>
      <point x="1820" y="540" type="line"/>
      <point x="1807" y="1469" type="line"/>
      <point x="1716" y="1469" type="line"/>
      <point x="1380" y="727" type="line"/>
      <point x="1026" y="1469" type="line"/>
      <point x="937" y="1469" type="line"/>
    </contour>
    <contour>
      <point x="380" y="540" type="line"/>
      <point x="459" y="540" type="line"/>
      <point x="459" y="1406" type="line"/>
      <point x="756" y="1406" type="line"/>
      <point x="756" y="1469" type="line"/>
      <point x="94" y="1469" type="line"/>
      <point x="94" y="1406" type="line"/>
      <point x="380" y="1406" type="line"/>
    </contour>
  </outline>
</glyph>
<glyph name="partialdiff" format="1">
  <advance width="1174"/>
  <unicode hex="2202"/>
  <outline>
    <contour>
      <point x="475" y="-19" type="curve" smooth="yes"/>
      <point x="807" y="-19"/>
      <point x="1029" y="380"/>
      <point x="1029" y="906" type="curve" smooth="yes"/>
      <point x="1029" y="1450"/>
      <point x="666" y="1698"/>
      <point x="240" y="1482" type="curve"/>
      <point x="267" y="1414" type="line"/>
      <point x="679" y="1595"/>
      <point x="918" y="1336"/>
      <point x="915" y="917" type="curve"/>
      <point x="180" y="917"/>
      <point x="-71" y="-19"/>
    </contour>
    <contour>
      <point x="480" y="54" type="curve" smooth="yes"/>
      <point x="132" y="54"/>
      <point x="348" y="842"/>
      <point x="913" y="848" type="curve"/>
      <point x="905" y="489"/>
      <point x="745" y="54"/>
    </contour>
  </outline>
</glyph>
<glyph name="product" format="1">
  <advance width="1469"/>
  <unicode hex="220F"/>
  <outline>
    <contour>
      <point x="214" y="0" type="line"/>
      <point x="332" y="0" type="line"/>
      <point x="332" y="1365" type="line"/>
      <point x="1181" y="1365" type="line"/>
      <point x="1181" y="0" type="line"/>
      <point x="1299" y="0" type="line"/>
      <point x="1299" y="1469" type="line"/>
      <point x="214" y="1469" type="line"/>
    </contour>
  </outline>
</glyph>
<glyph name="summation" format="1">
  <advance width="1230"/>
  <unicode hex="2211"/>
  <outline>
    <contour>
      <point x="157" y="-153" type="line"/>
      <point x="1166" y="-153" type="line"/>
      <point x="1166" y="-55" type="line"/>
      <point x="306" y="-55" type="line"/>
      <point x="810" y="685" type="line"/>
      <point x="326" y="1360" type="line"/>
      <point x="1075" y="1360" type="line"/>
      <point x="1075" y="1455" type="line"/>
      <point x="178" y="1455" type="line"/>
      <point x="178" y="1378" type="line"/>
      <point x="674" y="687" type="line"/>
      <point x="157" y="-80" type="line"/>
    </contour>
  </outline>
</glyph>
<glyph name="minus" format="1">
  <advance width="1115"/>
  <unicode hex="2212"/>
  <outline>
    <contour>
      <point x="79" y="565" type="line"/>
      <point x="1020" y="565" type="line"/>
      <point x="1020" y="676" type="line"/>
      <point x="79" y="676" type="line"/>
    </contour>
  </outline>
</glyph>
<glyph name="infinity" format="1">
  <advance width="1706"/>
  <unicode hex="221E"/>
  <outline>
    <contour>
      <point x="447" y="261" type="curve" smooth="yes"/>
      <point x="594" y="261"/>
      <point x="715" y="354"/>
      <point x="856" y="544" type="curve"/>
      <point x="1004" y="346"/>
      <point x="1120" y="261"/>
      <point x="1257" y="261" type="curve" smooth="yes"/>
      <point x="1460" y="261"/>
      <point x="1603" y="410"/>
      <point x="1603" y="629" type="curve" smooth="yes"/>
      <point x="1603" y="844"/>
      <point x="1471" y="992"/>
      <point x="1259" y="992" type="curve" smooth="yes"/>
      <point x="1109" y="992"/>
      <point x="990" y="898"/>
      <point x="851" y="704" type="curve"/>
      <point x="706" y="900"/>
      <point x="587" y="992"/>
      <point x="443" y="992" type="curve" smooth="yes"/>
      <point x="241" y="992"/>
      <point x="98" y="849"/>
      <point x="98" y="646" type="curve" smooth="yes"/>
      <point x="98" y="423"/>
      <point x="233" y="261"/>
    </contour>
    <contour>
      <point x="449" y="352" type="curve" smooth="yes"/>
      <point x="293" y="352"/>
      <point x="189" y="470"/>
      <point x="189" y="626" type="curve" smooth="yes"/>
      <point x="189" y="783"/>
      <point x="289" y="897"/>
      <point x="442" y="897" type="curve" smooth="yes"/>
      <point x="582" y="897"/>
      <point x="690" y="805"/>
      <point x="804" y="617" type="curve"/>
      <point x="689" y="442"/>
      <point x="581" y="352"/>
    </contour>
    <contour>
      <point x="1259" y="352" type="curve" smooth="yes"/>
      <point x="1144" y="352"/>
      <point x="1044" y="438"/>
      <point x="903" y="635" type="curve"/>
      <point x="1013" y="805"/>
      <point x="1120" y="897"/>
      <point x="1255" y="897" type="curve" smooth="yes"/>
      <point x="1402" y="897"/>
      <point x="1502" y="794"/>
      <point x="1502" y="651" type="curve" smooth="yes"/>
      <point x="1502" y="475"/>
      <point x="1411" y="352"/>
    </contour>
  </outline>
</glyph>
<glyph name="approxequal" format="1">
  <advance width="1240"/>
  <unicode hex="2248"/>
  <outline>
    <contour>
      <point x="900" y="899" type="curve" smooth="yes"/>
      <point x="835" y="899"/>
      <point x="748" y="937"/>
      <point x="647" y="984" type="curve"/>
      <point x="538" y="1035"/>
      <point x="451" y="1069"/>
      <point x="367" y="1069" type="curve" smooth="yes"/>
      <point x="254" y="1069"/>
      <point x="174" y="1001"/>
      <point x="138" y="866" type="curve"/>
      <point x="183" y="819" type="line"/>
      <point x="214" y="933"/>
      <point x="284" y="989"/>
      <point x="369" y="989" type="curve" smooth="yes"/>
      <point x="440" y="989"/>
      <point x="522" y="954"/>
      <point x="614" y="911" type="curve" smooth="yes"/>
      <point x="726" y="857"/>
      <point x="824" y="821"/>
      <point x="903" y="821" type="curve" smooth="yes"/>
      <point x="1013" y="821"/>
      <point x="1081" y="887"/>
      <point x="1103" y="1023" type="curve"/>
      <point x="1057" y="1067" type="line"/>
      <point x="1042" y="957"/>
      <point x="981" y="899"/>
    </contour>
    <contour>
      <point x="900" y="545" type="curve" smooth="yes"/>
      <point x="835" y="545"/>
      <point x="748" y="583"/>
      <point x="647" y="630" type="curve"/>
      <point x="538" y="681"/>
      <point x="451" y="715"/>
      <point x="367" y="715" type="curve" smooth="yes"/>
      <point x="254" y="715"/>
      <point x="174" y="647"/>
      <point x="138" y="512" type="curve"/>
      <point x="183" y="465" type="line"/>
      <point x="214" y="579"/>
      <point x="284" y="635"/>
      <point x="369" y="635" type="curve" smooth="yes"/>
      <point x="440" y="635"/>
      <point x="522" y="600"/>
      <point x="614" y="557" type="curve" smooth="yes"/>
      <point x="726" y="503"/>
      <point x="824" y="467"/>
      <point x="903" y="467" type="curve" smooth="yes"/>
      <point x="1013" y="467"/>
      <point x="1081" y="533"/>
      <point x="1103" y="669" type="curve"/>
      <point x="1057" y="713" type="line"/>
      <point x="1042" y="603"/>
      <point x="981" y="545"/>
    </contour>
  </outline>
</glyph>
<glyph name="notequal" format="1">
  <advance width="1130"/>
  <unicode hex="2260"/>
  <outline>
    <contour>
      <point x="288" y="51" type="line"/>
      <point x="452" y="368" type="line"/>
      <point x="999" y="368" type="line"/>
      <point x="997" y="457" type="line"/>
      <point x="491" y="457" type="line"/>
      <point x="684" y="814" type="line"/>
      <point x="999" y="814" type="line"/>
      <point x="993" y="900" type="line"/>
      <point x="721" y="900" type="line"/>
      <point x="871" y="1204" type="line"/>
      <point x="793" y="1209" type="line"/>
      <point x="631" y="900" type="line"/>
      <point x="97" y="900" type="line"/>
      <point x="102" y="813" type="line"/>
      <point x="592" y="813" type="line"/>
      <point x="405" y="457" type="line"/>
      <point x="97" y="457" type="line"/>
      <point x="102" y="368" type="line"/>
      <point x="358" y="368" type="line"/>
      <point x="209" y="58" type="line"/>
    </contour>
  </outline>
</glyph>
<glyph name="greaterequal" format="1">
  <advance width="1231"/>
  <unicode hex="2265"/>
  <outline>
    <contour>
      <point x="150" y="231" type="line"/>
      <point x="1074" y="720" type="line"/>
      <point x="1074" y="783" type="line"/>
      <point x="150" y="1304" type="line"/>
      <point x="150" y="1200" type="line"/>
      <point x="932" y="753" type="line"/>
      <point x="150" y="333" type="line"/>
    </contour>
    <contour>
      <point x="141" y="3" type="line"/>
      <point x="1092" y="3" type="line"/>
      <point x="1092" y="93" type="line"/>
      <point x="141" y="93" type="line"/>
    </contour>
  </outline>
</glyph>
<glyph name="lozenge" format="1">
  <advance width="1183"/>
  <unicode hex="25CA"/>
  <outline>
    <contour>
      <point x="530" y="-42" type="line"/>
      <point x="618" y="-42" type="line"/>
      <point x="1045" y="778" type="line"/>
      <point x="626" y="1597" type="line"/>
      <point x="536" y="1597" type="line"/>
      <point x="109" y="776" type="line"/>
    </contour>
    <contour>
      <point x="573" y="64" type="curve"/>
      <point x="567" y="75"/>
      <point x="224" y="766"/>
      <point x="219" y="778" type="curve"/>
      <point x="225" y="789"/>
      <point x="578" y="1472"/>
      <point x="585" y="1483" type="curve"/>
      <point x="590" y="1472"/>
      <point x="930" y="786"/>
      <point x="936" y="775" type="curve"/>
      <point x="930" y="764"/>
      <point x="579" y="75"/>
    </contour>
  </outline>
</glyph>
<glyph name="dotlessj" format="1">
  <advance width="526"/>
  <outline>
    <contour>
      <point x="230" y="1082" type="line"/>
      <point x="230" y="43" type="line" smooth="yes"/>
      <point x="230" y="-158"/>
      <point x="228" y="-215"/>
      <point x="76" y="-227" type="curve" smooth="yes"/>
      <point x="30" y="-231" type="line"/>
      <point x="34" y="-336" type="line"/>
      <point x="91" y="-333" type="line" smooth="yes"/>
      <point x="262" y="-322"/>
      <point x="351" y="-254"/>
      <point x="351" y="-16" type="curve" smooth="yes"/>
      <point x="351" y="1082" type="line"/>
    </contour>
  </outline>
</glyph>
<glyph name="middot" format="1">
  <advance width="474"/>
  <outline>
    <contour>
      <point x="243" y="636" type="move" name="_mid"/>
    </contour>
    <component base="period" xOffset="-21" yOffset="561"/>
  </outline>
</glyph>
